semi.ufo
<glyph name="exclam.deva" format="1">
  <advance width="508"/>
  <unicode hex="0021"/>
  <outline>
    <contour>
      <point x="334" y="400" type="line"/>
      <point x="177" y="400" type="line"/>
      <point x="130" y="1316" type="line"/>
      <point x="380" y="1316" type="line"/>
    </contour>
    <contour>
      <point x="120" y="112" type="curve" smooth="yes"/>
      <point x="120" y="201"/>
      <point x="168" y="248"/>
      <point x="255" y="248" type="curve" smooth="yes"/>
      <point x="340" y="248"/>
      <point x="387" y="197"/>
      <point x="387" y="112" type="curve" smooth="yes"/>
      <point x="387" y="28"/>
      <point x="339" y="-26"/>
      <point x="255" y="-26" type="curve" smooth="yes"/>
      <point x="170" y="-26"/>
      <point x="120" y="24"/>
    </contour>
  </outline>
</glyph>
<glyph name="quotesingle.deva" format="1">
  <advance width="448"/>
  <unicode hex="0027"/>
  <outline>
    <contour>
      <point x="328" y="1316" type="line"/>
      <point x="292" y="841" type="line"/>
      <point x="157" y="841" type="line"/>
      <point x="120" y="1316" type="line"/>
    </contour>
  </outline>
</glyph>
<glyph name="hyphen.deva" format="1">
  <advance width="593"/>
  <unicode hex="002D"/>
  <outline>
    <contour>
      <point x="65" y="404" type="line"/>
      <point x="65" y="584" type="line"/>
      <point x="527" y="584" type="line"/>
      <point x="527" y="404" type="line"/>
    </contour>
  </outline>
</glyph>
<glyph name="one.deva" format="1">
  <advance width="1052"/>
  <unicode hex="0031"/>
  <outline>
    <contour>
      <point x="702" y="0" type="line"/>
      <point x="490" y="0" type="line"/>
      <point x="490" y="850" type="line" smooth="yes"/>
      <point x="490" y="951"/>
      <point x="493" y="1032"/>
      <point x="498" y="1091" type="curve"/>
      <point x="484" y="1076"/>
      <point x="467" y="1060"/>
      <point x="447" y="1043" type="curve" smooth="yes"/>
      <point x="427" y="1026"/>
      <point x="360" y="970"/>
      <point x="245" y="877" type="curve"/>
      <point x="139" y="1012" type="line"/>
      <point x="526" y="1316" type="line"/>
      <point x="702" y="1316" type="line"/>
    </contour>
  </outline>
</glyph>
<glyph name="three.deva" format="1">
  <advance width="1052"/>
  <unicode hex="0033"/>
  <outline>
    <contour>
      <point x="923" y="1013" type="curve" smooth="yes"/>
      <point x="923" y="846"/>
      <point x="822" y="732"/>
      <point x="645" y="693" type="curve"/>
      <point x="645" y="686" type="line"/>
      <point x="857" y="659"/>
      <point x="962" y="551"/>
      <point x="962" y="378" type="curve" smooth="yes"/>
      <point x="962" y="251"/>
      <point x="917" y="154"/>
      <point x="828" y="85" type="curve" smooth="yes"/>
      <point x="739" y="16"/>
      <point x="611" y="-18"/>
      <point x="446" y="-18" type="curve" smooth="yes"/>
      <point x="301" y="-18"/>
      <point x="178" y="6"/>
      <point x="77" y="53" type="curve"/>
      <point x="77" y="241" type="line"/>
      <point x="189" y="186"/>
      <point x="319" y="155"/>
      <point x="435" y="155" type="curve" smooth="yes"/>
      <point x="639" y="155"/>
      <point x="739" y="228"/>
      <point x="739" y="387" type="curve" smooth="yes"/>
      <point x="739" y="527"/>
      <point x="631" y="591"/>
      <point x="392" y="591" type="curve" smooth="yes"/>
      <point x="278" y="591" type="line"/>
      <point x="278" y="763" type="line"/>
      <point x="394" y="763" type="line" smooth="yes"/>
      <point x="604" y="763"/>
      <point x="709" y="836"/>
      <point x="709" y="981" type="curve" smooth="yes"/>
      <point x="709" y="1094"/>
      <point x="635" y="1157"/>
      <point x="492" y="1157" type="curve" smooth="yes"/>
      <point x="443" y="1157"/>
      <point x="395" y="1150"/>
      <point x="348" y="1136" type="curve" smooth="yes"/>
      <point x="302" y="1122"/>
      <point x="247" y="1095"/>
      <point x="184" y="1054" type="curve"/>
      <point x="81" y="1201" type="line"/>
      <point x="202" y="1290"/>
      <point x="342" y="1335"/>
      <point x="501" y="1335" type="curve" smooth="yes"/>
      <point x="634" y="1335"/>
      <point x="737" y="1306"/>
      <point x="811" y="1249" type="curve" smooth="yes"/>
      <point x="886" y="1192"/>
      <point x="923" y="1114"/>
    </contour>
  </outline>
</glyph>
<glyph name="four.deva" format="1">
  <advance width="1052"/>
  <unicode hex="0034"/>
  <outline>
    <contour>
      <point x="1020" y="287" type="line"/>
      <point x="842" y="287" type="line"/>
      <point x="842" y="0" type="line"/>
      <point x="636" y="0" type="line"/>
      <point x="636" y="287" type="line"/>
      <point x="35" y="287" type="line"/>
      <point x="35" y="450" type="line"/>
      <point x="636" y="1319" type="line"/>
      <point x="842" y="1319" type="line"/>
      <point x="842" y="463" type="line"/>
      <point x="1020" y="463" type="line"/>
    </contour>
    <contour>
      <point x="636" y="463" type="line"/>
      <point x="636" y="793" type="line" smooth="yes"/>
      <point x="636" y="910"/>
      <point x="639" y="1007"/>
      <point x="645" y="1082" type="curve"/>
      <point x="638" y="1082" type="line"/>
      <point x="621" y="1042"/>
      <point x="595" y="994"/>
      <point x="559" y="938" type="curve"/>
      <point x="232" y="463" type="line"/>
    </contour>
  </outline>
</glyph>
<glyph name="five.deva" format="1">
  <advance width="1052"/>
  <unicode hex="0035"/>
  <outline>
    <contour>
      <point x="527" y="822" type="curve" smooth="yes"/>
      <point x="660" y="822"/>
      <point x="765" y="787"/>
      <point x="842" y="716" type="curve" smooth="yes"/>
      <point x="919" y="646"/>
      <point x="958" y="550"/>
      <point x="958" y="429" type="curve" smooth="yes"/>
      <point x="958" y="289"/>
      <point x="914" y="179"/>
      <point x="826" y="100" type="curve" smooth="yes"/>
      <point x="739" y="21"/>
      <point x="614" y="-18"/>
      <point x="452" y="-18" type="curve" smooth="yes"/>
      <point x="305" y="-18"/>
      <point x="189" y="6"/>
      <point x="105" y="53" type="curve"/>
      <point x="105" y="245" type="line"/>
      <point x="154" y="217"/>
      <point x="209" y="195"/>
      <point x="272" y="180" type="curve" smooth="yes"/>
      <point x="335" y="165"/>
      <point x="394" y="158"/>
      <point x="448" y="158" type="curve" smooth="yes"/>
      <point x="639" y="158"/>
      <point x="741" y="245"/>
      <point x="741" y="409" type="curve" smooth="yes"/>
      <point x="741" y="566"/>
      <point x="641" y="645"/>
      <point x="440" y="645" type="curve" smooth="yes"/>
      <point x="412" y="645"/>
      <point x="377" y="642"/>
      <point x="336" y="636" type="curve" smooth="yes"/>
      <point x="295" y="631"/>
      <point x="258" y="624"/>
      <point x="227" y="617" type="curve"/>
      <point x="132" y="673" type="line"/>
      <point x="183" y="1316" type="line"/>
      <point x="867" y="1316" type="line"/>
      <point x="867" y="1128" type="line"/>
      <point x="369" y="1128" type="line"/>
      <point x="339" y="802" type="line"/>
      <point x="382" y="809"/>
      <point x="440" y="822"/>
    </contour>
  </outline>
</glyph>
<glyph name="eight.deva" format="1">
  <advance width="1052"/>
  <unicode hex="0038"/>
  <outline>
    <contour>
      <point x="526" y="1333" type="curve" smooth="yes"/>
      <point x="651" y="1333"/>
      <point x="749" y="1304"/>
      <point x="822" y="1247" type="curve" smooth="yes"/>
      <point x="895" y="1190"/>
      <point x="931" y="1113"/>
      <point x="931" y="1017" type="curve" smooth="yes"/>
      <point x="931" y="882"/>
      <point x="850" y="774"/>
      <point x="688" y="695" type="curve"/>
      <point x="791" y="643"/>
      <point x="864" y="588"/>
      <point x="907" y="531" type="curve" smooth="yes"/>
      <point x="951" y="474"/>
      <point x="973" y="411"/>
      <point x="973" y="341" type="curve" smooth="yes"/>
      <point x="973" y="232"/>
      <point x="933" y="145"/>
      <point x="853" y="80" type="curve" smooth="yes"/>
      <point x="773" y="15"/>
      <point x="665" y="-18"/>
      <point x="529" y="-18" type="curve" smooth="yes"/>
      <point x="386" y="-18"/>
      <point x="276" y="13"/>
      <point x="197" y="74" type="curve" smooth="yes"/>
      <point x="118" y="135"/>
      <point x="79" y="222"/>
      <point x="79" y="334" type="curve" smooth="yes"/>
      <point x="79" y="481"/>
      <point x="155" y="596"/>
      <point x="343" y="688" type="curve"/>
      <point x="182" y="784"/>
      <point x="120" y="887"/>
      <point x="120" y="1020" type="curve" smooth="yes"/>
      <point x="120" y="1115"/>
      <point x="157" y="1191"/>
      <point x="232" y="1248" type="curve" smooth="yes"/>
      <point x="307" y="1305"/>
      <point x="405" y="1333"/>
    </contour>
    <contour>
      <point x="282" y="341" type="curve" smooth="yes"/>
      <point x="282" y="216"/>
      <point x="375" y="144"/>
      <point x="526" y="144" type="curve" smooth="yes"/>
      <point x="681" y="144"/>
      <point x="770" y="220"/>
      <point x="770" y="343" type="curve" smooth="yes"/>
      <point x="770" y="440"/>
      <point x="692" y="519"/>
      <point x="531" y="588" type="curve" smooth="yes"/>
      <point x="505" y="599" type="line"/>
      <point x="346" y="530"/>
      <point x="282" y="449"/>
    </contour>
    <contour>
      <point x="524" y="1170" type="curve" smooth="yes"/>
      <point x="404" y="1170"/>
      <point x="324" y="1107"/>
      <point x="324" y="1004" type="curve" smooth="yes"/>
      <point x="324" y="973"/>
      <point x="331" y="946"/>
      <point x="344" y="921" type="curve" smooth="yes"/>
      <point x="357" y="896"/>
      <point x="376" y="874"/>
      <point x="401" y="853" type="curve" smooth="yes"/>
      <point x="426" y="833"/>
      <point x="469" y="809"/>
      <point x="529" y="781" type="curve"/>
      <point x="673" y="845"/>
      <point x="726" y="911"/>
      <point x="726" y="1004" type="curve" smooth="yes"/>
      <point x="726" y="1107"/>
      <point x="647" y="1170"/>
    </contour>
  </outline>
</glyph>
<glyph name="semicolon.deva" format="1">
  <advance width="512"/>
  <unicode hex="003B"/>
  <outline>
    <contour>
      <point x="357" y="214" type="line"/>
      <point x="371" y="193" type="line"/>
      <point x="342" y="82"/>
      <point x="289" y="-62"/>
      <point x="212" y="-238" type="curve"/>
      <point x="57" y="-238" type="line"/>
      <point x="98" y="-76"/>
      <point x="129" y="75"/>
      <point x="149" y="214" type="curve"/>
    </contour>
    <contour>
      <point x="118" y="881" type="curve" smooth="yes"/>
      <point x="118" y="972"/>
      <point x="162" y="1017"/>
      <point x="251" y="1017" type="curve" smooth="yes"/>
      <point x="342" y="1017"/>
      <point x="385" y="966"/>
      <point x="385" y="881" type="curve" smooth="yes"/>
      <point x="385" y="796"/>
      <point x="338" y="742"/>
      <point x="251" y="742" type="curve" smooth="yes"/>
      <point x="164" y="742"/>
      <point x="118" y="794"/>
    </contour>
  </outline>
</glyph>
<glyph name="less.deva" format="1">
  <advance width="1052"/>
  <unicode hex="003C"/>
  <outline>
    <contour>
      <point x="966" y="199" type="line"/>
      <point x="86" y="586" type="line"/>
      <point x="86" y="695" type="line"/>
      <point x="966" y="1134" type="line"/>
      <point x="966" y="958" type="line"/>
      <point x="306" y="649" type="line"/>
      <point x="966" y="376" type="line"/>
    </contour>
  </outline>
</glyph>
<glyph name="greater.deva" format="1">
  <advance width="1052"/>
  <unicode hex="003E"/>
  <outline>
    <contour>
      <point x="86" y="376" type="line"/>
      <point x="746" y="649" type="line"/>
      <point x="86" y="958" type="line"/>
      <point x="86" y="1134" type="line"/>
      <point x="966" y="695" type="line"/>
      <point x="966" y="586" type="line"/>
      <point x="86" y="199" type="line"/>
    </contour>
  </outline>
</glyph>
<glyph name="question.deva" format="1">
  <advance width="835"/>
  <unicode hex="003F"/>
  <outline>
    <contour>
      <point x="255" y="400" type="line"/>
      <point x="255" y="457" type="line" smooth="yes"/>
      <point x="255" y="523"/>
      <point x="267" y="578"/>
      <point x="291" y="622" type="curve" smooth="yes"/>
      <point x="315" y="666"/>
      <point x="357" y="711"/>
      <point x="417" y="758" type="curve" smooth="yes"/>
      <point x="488" y="814"/>
      <point x="534" y="858"/>
      <point x="555" y="889" type="curve" smooth="yes"/>
      <point x="576" y="920"/>
      <point x="586" y="958"/>
      <point x="586" y="1001" type="curve" smooth="yes"/>
      <point x="586" y="1101"/>
      <point x="516" y="1157"/>
      <point x="391" y="1157" type="curve" smooth="yes"/>
      <point x="276" y="1157"/>
      <point x="182" y="1120"/>
      <point x="90" y="1075" type="curve"/>
      <point x="14" y="1233" type="line"/>
      <point x="136" y="1301"/>
      <point x="267" y="1335"/>
      <point x="406" y="1335" type="curve" smooth="yes"/>
      <point x="523" y="1335"/>
      <point x="616" y="1306"/>
      <point x="685" y="1248" type="curve" smooth="yes"/>
      <point x="754" y="1191"/>
      <point x="789" y="1111"/>
      <point x="789" y="1010" type="curve" smooth="yes"/>
      <point x="789" y="965"/>
      <point x="782" y="924"/>
      <point x="769" y="889" type="curve" smooth="yes"/>
      <point x="756" y="854"/>
      <point x="737" y="821"/>
      <point x="710" y="789" type="curve" smooth="yes"/>
      <point x="683" y="758"/>
      <point x="637" y="716"/>
      <point x="571" y="665" type="curve" smooth="yes"/>
      <point x="516" y="621"/>
      <point x="478" y="585"/>
      <point x="459" y="556" type="curve" smooth="yes"/>
      <point x="440" y="527"/>
      <point x="431" y="489"/>
      <point x="431" y="440" type="curve" smooth="yes"/>
      <point x="431" y="400" type="line"/>
    </contour>
    <contour>
      <point x="218" y="112" type="curve" smooth="yes"/>
      <point x="218" y="203"/>
      <point x="262" y="248"/>
      <point x="350" y="248" type="curve" smooth="yes"/>
      <point x="437" y="248"/>
      <point x="483" y="199"/>
      <point x="483" y="112" type="curve" smooth="yes"/>
      <point x="483" y="28"/>
      <point x="435" y="-26"/>
      <point x="350" y="-26" type="curve" smooth="yes"/>
      <point x="265" y="-26"/>
      <point x="218" y="25"/>
    </contour>
  </outline>
</glyph>
<glyph name="at" format="1">
  <advance width="1655"/>
  <unicode hex="0040"/>
  <outline>
    <contour>
      <point x="1553" y="665" type="curve"/>
      <point x="1554" y="407"/>
      <point x="1422" y="198"/>
      <point x="1229" y="204" type="curve"/>
      <point x="1134" y="204"/>
      <point x="1060" y="258"/>
      <point x="1036" y="345" type="curve"/>
      <point x="1025" y="345" type="line"/>
      <point x="966" y="250"/>
      <point x="878" y="204"/>
      <point x="770" y="204" type="curve" smooth="yes"/>
      <point x="673" y="204"/>
      <point x="596" y="235"/>
      <point x="539" y="298" type="curve" smooth="yes"/>
      <point x="483" y="361"/>
      <point x="455" y="447"/>
      <point x="455" y="554" type="curve" smooth="yes"/>
      <point x="455" y="678"/>
      <point x="492" y="778"/>
      <point x="567" y="855" type="curve" smooth="yes"/>
      <point x="642" y="932"/>
      <point x="742" y="971"/>
      <point x="867" y="971" type="curve" smooth="yes"/>
      <point x="912" y="971"/>
      <point x="963" y="967"/>
      <point x="1018" y="959" type="curve" smooth="yes"/>
      <point x="1074" y="951"/>
      <point x="1123" y="940"/>
      <point x="1166" y="925" type="curve"/>
      <point x="1147" y="507" type="line"/>
      <point x="1147" y="485" type="line" smooth="yes"/>
      <point x="1147" y="389"/>
      <point x="1178" y="341"/>
      <point x="1240" y="341" type="curve" smooth="yes"/>
      <point x="1287" y="341"/>
      <point x="1325" y="372"/>
      <point x="1353" y="433" type="curve" smooth="yes"/>
      <point x="1381" y="494"/>
      <point x="1395" y="572"/>
      <point x="1395" y="667" type="curve"/>
      <point x="1399" y="974"/>
      <point x="1188" y="1184"/>
      <point x="886" y="1180" type="curve"/>
      <point x="503" y="1185"/>
      <point x="257" y="920"/>
      <point x="262" y="533" type="curve"/>
      <point x="262" y="185"/>
      <point x="454" y="-9"/>
      <point x="802" y="-9" type="curve" smooth="yes"/>
      <point x="935" y="-9"/>
      <point x="1073" y="18"/>
      <point x="1217" y="72" type="curve"/>
      <point x="1217" y="-76" type="line"/>
      <point x="1091" y="-127"/>
      <point x="954" y="-153"/>
      <point x="805" y="-153" type="curve" smooth="yes"/>
      <point x="583" y="-153"/>
      <point x="410" y="-93"/>
      <point x="286" y="26" type="curve" smooth="yes"/>
      <point x="162" y="146"/>
      <point x="100" y="313"/>
      <point x="100" y="527" type="curve" smooth="yes"/>
      <point x="100" y="684"/>
      <point x="133" y="823"/>
      <point x="200" y="945" type="curve" smooth="yes"/>
      <point x="267" y="1068"/>
      <point x="361" y="1161"/>
      <point x="480" y="1226" type="curve" smooth="yes"/>
      <point x="599" y="1291"/>
      <point x="734" y="1323"/>
      <point x="885" y="1323" type="curve"/>
      <point x="1274" y="1329"/>
      <point x="1559" y="1057"/>
    </contour>
    <contour>
      <point x="628" y="551" type="curve" smooth="yes"/>
      <point x="628" y="411"/>
      <point x="683" y="341"/>
      <point x="793" y="341" type="curve" smooth="yes"/>
      <point x="909" y="341"/>
      <point x="972" y="429"/>
      <point x="983" y="605" type="curve"/>
      <point x="994" y="820" type="line"/>
      <point x="956" y="830"/>
      <point x="915" y="835"/>
      <point x="872" y="835" type="curve" smooth="yes"/>
      <point x="795" y="835"/>
      <point x="735" y="809"/>
      <point x="692" y="758" type="curve" smooth="yes"/>
      <point x="649" y="707"/>
      <point x="628" y="638"/>
    </contour>
  </outline>
</glyph>
<glyph name="E" format="1">
  <advance width="1029"/>
  <unicode hex="0045"/>
  <outline>
    <contour>
      <point x="918" y="0" type="line"/>
      <point x="174" y="0" type="line"/>
      <point x="174" y="1316" type="line"/>
      <point x="918" y="1316" type="line"/>
      <point x="918" y="1134" type="line"/>
      <point x="389" y="1134" type="line"/>
      <point x="389" y="776" type="line"/>
      <point x="885" y="776" type="line"/>
      <point x="885" y="596" type="line"/>
      <point x="389" y="596" type="line"/>
      <point x="389" y="183" type="line"/>
      <point x="918" y="183" type="line"/>
    </contour>
  </outline>
</glyph>
<glyph name="F" format="1">
  <advance width="981"/>
  <unicode hex="0046"/>
  <outline>
    <contour>
      <point x="387" y="0" type="line"/>
      <point x="174" y="0" type="line"/>
      <point x="174" y="1316" type="line"/>
      <point x="916" y="1316" type="line"/>
      <point x="916" y="1134" type="line"/>
      <point x="387" y="1134" type="line"/>
      <point x="387" y="723" type="line"/>
      <point x="883" y="723" type="line"/>
      <point x="883" y="540" type="line"/>
      <point x="387" y="540" type="line"/>
    </contour>
  </outline>
</glyph>
<glyph name="Q" format="1">
  <advance width="1451"/>
  <unicode hex="0051"/>
  <outline>
    <contour>
      <point x="1342" y="660" type="curve" smooth="yes"/>
      <point x="1342" y="340"/>
      <point x="1217" y="115"/>
      <point x="985" y="26" type="curve"/>
      <point x="1300" y="-313" type="line"/>
      <point x="1010" y="-313" type="line"/>
      <point x="761" y="-18" type="line"/>
      <point x="726" y="-18" type="line" smooth="yes"/>
      <point x="527" y="-18"/>
      <point x="375" y="41"/>
      <point x="268" y="159" type="curve" smooth="yes"/>
      <point x="162" y="277"/>
      <point x="109" y="444"/>
      <point x="109" y="661" type="curve" smooth="yes"/>
      <point x="109" y="878"/>
      <point x="162" y="1045"/>
      <point x="269" y="1161" type="curve" smooth="yes"/>
      <point x="376" y="1278"/>
      <point x="529" y="1336"/>
      <point x="728" y="1336" type="curve" smooth="yes"/>
      <point x="923" y="1336"/>
      <point x="1074" y="1277"/>
      <point x="1181" y="1159" type="curve" smooth="yes"/>
      <point x="1288" y="1041"/>
      <point x="1342" y="875"/>
    </contour>
    <contour>
      <point x="337" y="660" type="curve" smooth="yes"/>
      <point x="337" y="336"/>
      <point x="470" y="166"/>
      <point x="726" y="166" type="curve" smooth="yes"/>
      <point x="982" y="166"/>
      <point x="1113" y="332"/>
      <point x="1113" y="660" type="curve" smooth="yes"/>
      <point x="1113" y="983"/>
      <point x="984" y="1152"/>
      <point x="728" y="1152" type="curve" smooth="yes"/>
      <point x="471" y="1152"/>
      <point x="337" y="983"/>
    </contour>
  </outline>
</glyph>
<glyph name="S" format="1">
  <advance width="1013"/>
  <unicode hex="0053"/>
  <outline>
    <contour>
      <point x="932" y="357" type="curve" smooth="yes"/>
      <point x="932" y="240"/>
      <point x="890" y="149"/>
      <point x="805" y="82" type="curve" smooth="yes"/>
      <point x="721" y="15"/>
      <point x="604" y="-18"/>
      <point x="455" y="-18" type="curve" smooth="yes"/>
      <point x="306" y="-18"/>
      <point x="185" y="5"/>
      <point x="90" y="51" type="curve"/>
      <point x="90" y="255" type="line"/>
      <point x="210" y="198"/>
      <point x="353" y="164"/>
      <point x="470" y="164" type="curve" smooth="yes"/>
      <point x="641" y="164"/>
      <point x="719" y="234"/>
      <point x="719" y="343" type="curve" smooth="yes"/>
      <point x="719" y="392"/>
      <point x="700" y="434"/>
      <point x="663" y="468" type="curve" smooth="yes"/>
      <point x="626" y="502"/>
      <point x="549" y="542"/>
      <point x="433" y="589" type="curve" smooth="yes"/>
      <point x="313" y="638"/>
      <point x="228" y="693"/>
      <point x="179" y="756" type="curve" smooth="yes"/>
      <point x="130" y="819"/>
      <point x="105" y="894"/>
      <point x="105" y="981" type="curve" smooth="yes"/>
      <point x="105" y="1091"/>
      <point x="144" y="1177"/>
      <point x="222" y="1240" type="curve" smooth="yes"/>
      <point x="300" y="1303"/>
      <point x="405" y="1335"/>
      <point x="536" y="1335" type="curve" smooth="yes"/>
      <point x="662" y="1335"/>
      <point x="788" y="1307"/>
      <point x="913" y="1252" type="curve"/>
      <point x="844" y="1076" type="line"/>
      <point x="727" y="1125"/>
      <point x="623" y="1150"/>
      <point x="531" y="1150" type="curve" smooth="yes"/>
      <point x="392" y="1150"/>
      <point x="319" y="1084"/>
      <point x="319" y="985" type="curve" smooth="yes"/>
      <point x="319" y="950"/>
      <point x="326" y="921"/>
      <point x="340" y="896" type="curve"/>
      <point x="355" y="872"/>
      <point x="378" y="849"/>
      <point x="411" y="828" type="curve" smooth="yes"/>
      <point x="444" y="807"/>
      <point x="504" y="778"/>
      <point x="589" y="742" type="curve" smooth="yes"/>
      <point x="686" y="702"/>
      <point x="756" y="665"/>
      <point x="801" y="630" type="curve" smooth="yes"/>
      <point x="892" y="561"/>
      <point x="932" y="476"/>
    </contour>
  </outline>
</glyph>
<glyph name="T" format="1">
  <advance width="1043"/>
  <unicode hex="0054"/>
  <outline>
    <contour>
      <point x="628" y="0" type="line"/>
      <point x="413" y="0" type="line"/>
      <point x="413" y="1131" type="line"/>
      <point x="26" y="1131" type="line"/>
      <point x="26" y="1316" type="line"/>
      <point x="1015" y="1316" type="line"/>
      <point x="1015" y="1131" type="line"/>
      <point x="628" y="1131" type="line"/>
    </contour>
  </outline>
</glyph>
<glyph name="V" format="1">
  <advance width="1147"/>
  <unicode hex="0056"/>
  <outline>
    <contour>
      <point x="923" y="1316" type="line"/>
      <point x="1147" y="1316" type="line"/>
      <point x="686" y="0" type="line"/>
      <point x="459" y="0" type="line"/>
      <point x="0" y="1316" type="line"/>
      <point x="221" y="1316" type="line"/>
      <point x="496" y="498" type="line"/>
      <point x="510" y="459"/>
      <point x="525" y="408"/>
      <point x="541" y="347" type="curve" smooth="yes"/>
      <point x="558" y="286"/>
      <point x="568" y="240"/>
      <point x="573" y="210" type="curve"/>
      <point x="581" y="255"/>
      <point x="593" y="308"/>
      <point x="609" y="368" type="curve" smooth="yes"/>
      <point x="626" y="428"/>
      <point x="639" y="472"/>
      <point x="649" y="501" type="curve" smooth="yes"/>
    </contour>
  </outline>
</glyph>
<glyph name="W" format="1">
  <advance width="1743"/>
  <unicode hex="0057"/>
  <outline>
    <contour>
      <point x="1388" y="0" type="line"/>
      <point x="1154" y="0" type="line"/>
      <point x="931" y="785" type="line" smooth="yes"/>
      <point x="921" y="819"/>
      <point x="909" y="868"/>
      <point x="894" y="933" type="curve" smooth="yes"/>
      <point x="880" y="998"/>
      <point x="871" y="1042"/>
      <point x="868" y="1067" type="curve"/>
      <point x="862" y="1029"/>
      <point x="852" y="979"/>
      <point x="839" y="918" type="curve" smooth="yes"/>
      <point x="826" y="857"/>
      <point x="814" y="811"/>
      <point x="805" y="781" type="curve"/>
      <point x="588" y="0" type="line"/>
      <point x="354" y="0" type="line"/>
      <point x="184" y="659" type="line"/>
      <point x="11" y="1316" type="line"/>
      <point x="230" y="1316" type="line"/>
      <point x="418" y="549" type="line" smooth="yes"/>
      <point x="448" y="426"/>
      <point x="469" y="317"/>
      <point x="481" y="223" type="curve"/>
      <point x="488" y="274"/>
      <point x="498" y="331"/>
      <point x="511" y="394" type="curve" smooth="yes"/>
      <point x="524" y="457"/>
      <point x="536" y="508"/>
      <point x="547" y="547" type="curve" smooth="yes"/>
      <point x="761" y="1316" type="line"/>
      <point x="975" y="1316" type="line"/>
      <point x="1194" y="544" type="line" smooth="yes"/>
      <point x="1215" y="472"/>
      <point x="1238" y="365"/>
      <point x="1261" y="223" type="curve"/>
      <point x="1270" y="309"/>
      <point x="1291" y="418"/>
      <point x="1326" y="551" type="curve"/>
      <point x="1513" y="1316" type="line"/>
      <point x="1731" y="1316" type="line"/>
    </contour>
  </outline>
</glyph>
<glyph name="X" format="1">
  <advance width="1147"/>
  <unicode hex="0058"/>
  <outline>
    <contour>
      <point x="1143" y="0" type="line"/>
      <point x="895" y="0" type="line"/>
      <point x="566" y="538" type="line"/>
      <point x="234" y="0" type="line"/>
      <point x="4" y="0" type="line"/>
      <point x="440" y="682" type="line"/>
      <point x="31" y="1316" type="line"/>
      <point x="271" y="1316" type="line"/>
      <point x="575" y="818" type="line"/>
      <point x="879" y="1316" type="line"/>
      <point x="1111" y="1316" type="line"/>
      <point x="700" y="679" type="line"/>
    </contour>
  </outline>
</glyph>
<glyph name="Y" format="1">
  <advance width="1091"/>
  <unicode hex="0059"/>
  <outline>
    <contour>
      <point x="545" y="715" type="line"/>
      <point x="857" y="1316" type="line"/>
      <point x="1091" y="1316" type="line"/>
      <point x="652" y="510" type="line"/>
      <point x="652" y="0" type="line"/>
      <point x="436" y="0" type="line"/>
      <point x="436" y="503" type="line"/>
      <point x="0" y="1316" type="line"/>
      <point x="234" y="1316" type="line"/>
    </contour>
  </outline>
</glyph>
<glyph name="Z" format="1">
  <advance width="1060"/>
  <unicode hex="005A"/>
  <outline>
    <contour>
      <point x="1001" y="0" type="line"/>
      <point x="59" y="0" type="line"/>
      <point x="59" y="149" type="line"/>
      <point x="723" y="1131" type="line"/>
      <point x="77" y="1131" type="line"/>
      <point x="77" y="1316" type="line"/>
      <point x="983" y="1316" type="line"/>
      <point x="983" y="1165" type="line"/>
      <point x="317" y="184" type="line"/>
      <point x="1001" y="184" type="line"/>
    </contour>
  </outline>
</glyph>
<glyph name="bracketright.deva" format="1">
  <advance width="608"/>
  <unicode hex="005D"/>
  <outline>
    <contour>
      <point x="46" y="-132" type="line"/>
      <point x="276" y="-132" type="line"/>
      <point x="276" y="1157" type="line"/>
      <point x="46" y="1157" type="line"/>
      <point x="46" y="1316" type="line"/>
      <point x="468" y="1316" type="line"/>
      <point x="468" y="-292" type="line"/>
      <point x="46" y="-292" type="line"/>
    </contour>
  </outline>
</glyph>
<glyph name="underscore.deva" format="1">
  <advance width="791"/>
  <unicode hex="005F"/>
  <outline>
    <contour>
      <point x="795" y="-287" type="line"/>
      <point x="-4" y="-287" type="line"/>
      <point x="-4" y="-166" type="line"/>
      <point x="795" y="-166" type="line"/>
    </contour>
  </outline>
</glyph>
<glyph name="grave" format="1">
  <advance width="1081"/>
  <unicode hex="0060"/>
  <outline>
    <contour>
      <point x="666" y="1241" type="line"/>
      <point x="648" y="1252"/>
      <point x="587" y="1271"/>
      <point x="551" y="1296" type="curve" smooth="yes"/>
      <point x="484" y="1347"/>
      <point x="422" y="1398"/>
      <point x="366" y="1449" type="curve"/>
      <point x="335" y="1480"/>
      <point x="314" y="1512"/>
      <point x="303" y="1528" type="curve"/>
      <point x="473" y="1536" type="line"/>
      <point x="487" y="1518"/>
      <point x="584" y="1487"/>
      <point x="624" y="1444" type="curve"/>
      <point x="633" y="1428"/>
      <point x="673" y="1378"/>
      <point x="698" y="1346" type="curve"/>
      <point x="722" y="1315"/>
      <point x="746" y="1275"/>
      <point x="769" y="1249" type="curve"/>
    </contour>
  </outline>
</glyph>
<glyph name="a" format="1">
  <advance width="1069"/>
  <unicode hex="0061"/>
  <outline>
    <contour>
      <point x="774" y="0" type="line"/>
      <point x="732" y="139" type="line"/>
      <point x="724" y="139" type="line"/>
      <point x="676" y="78"/>
      <point x="628" y="37"/>
      <point x="579" y="15" type="curve" smooth="yes"/>
      <point x="531" y="-7"/>
      <point x="469" y="-18"/>
      <point x="392" y="-18" type="curve" smooth="yes"/>
      <point x="197" y="-18"/>
      <point x="81" y="92"/>
      <point x="81" y="285" type="curve" smooth="yes"/>
      <point x="81" y="490"/>
      <point x="232" y="594"/>
      <point x="544" y="603" type="curve" smooth="yes"/>
      <point x="715" y="608" type="line"/>
      <point x="715" y="661" type="line" smooth="yes"/>
      <point x="715" y="789"/>
      <point x="657" y="851"/>
      <point x="533" y="851" type="curve" smooth="yes"/>
      <point x="430" y="851"/>
      <point x="338" y="816"/>
      <point x="251" y="776" type="curve"/>
      <point x="183" y="927" type="line"/>
      <point x="291" y="983"/>
      <point x="427" y="1013"/>
      <point x="542" y="1013" type="curve" smooth="yes"/>
      <point x="795" y="1013"/>
      <point x="925" y="907"/>
      <point x="925" y="670" type="curve" smooth="yes"/>
      <point x="925" y="0" type="line"/>
    </contour>
    <contour>
      <point x="459" y="144" type="curve" smooth="yes"/>
      <point x="536" y="144"/>
      <point x="597" y="165"/>
      <point x="644" y="208" type="curve" smooth="yes"/>
      <point x="691" y="251"/>
      <point x="714" y="312"/>
      <point x="714" y="389" type="curve" smooth="yes"/>
      <point x="714" y="475" type="line"/>
      <point x="586" y="470" type="line" smooth="yes"/>
      <point x="386" y="462"/>
      <point x="301" y="406"/>
      <point x="301" y="283" type="curve" smooth="yes"/>
      <point x="301" y="195"/>
      <point x="354" y="144"/>
    </contour>
  </outline>
</glyph>
<glyph name="d" format="1">
  <advance width="1148"/>
  <unicode hex="0064"/>
  <outline>
    <contour>
      <point x="487" y="-18" type="curve" smooth="yes"/>
      <point x="363" y="-18"/>
      <point x="266" y="27"/>
      <point x="196" y="117" type="curve" smooth="yes"/>
      <point x="127" y="207"/>
      <point x="92" y="333"/>
      <point x="92" y="496" type="curve" smooth="yes"/>
      <point x="92" y="659"/>
      <point x="127" y="786"/>
      <point x="197" y="877" type="curve" smooth="yes"/>
      <point x="268" y="968"/>
      <point x="365" y="1013"/>
      <point x="490" y="1013" type="curve" smooth="yes"/>
      <point x="621" y="1013"/>
      <point x="721" y="965"/>
      <point x="789" y="868" type="curve"/>
      <point x="800" y="868" type="line"/>
      <point x="790" y="940"/>
      <point x="785" y="997"/>
      <point x="785" y="1038" type="curve" smooth="yes"/>
      <point x="785" y="1400" type="line"/>
      <point x="997" y="1400" type="line"/>
      <point x="997" y="0" type="line"/>
      <point x="832" y="0" type="line"/>
      <point x="795" y="130" type="line"/>
      <point x="785" y="130" type="line"/>
      <point x="717" y="31"/>
      <point x="618" y="-18"/>
    </contour>
    <contour>
      <point x="544" y="153" type="curve" smooth="yes"/>
      <point x="717" y="153"/>
      <point x="792" y="245"/>
      <point x="795" y="464" type="curve" smooth="yes"/>
      <point x="795" y="494" type="line" smooth="yes"/>
      <point x="795" y="619"/>
      <point x="774" y="708"/>
      <point x="733" y="761" type="curve" smooth="yes"/>
      <point x="692" y="814"/>
      <point x="629" y="841"/>
      <point x="542" y="841" type="curve" smooth="yes"/>
      <point x="393" y="841"/>
      <point x="310" y="716"/>
      <point x="310" y="492" type="curve" smooth="yes"/>
      <point x="310" y="272"/>
      <point x="388" y="153"/>
    </contour>
  </outline>
</glyph>
<glyph name="e" format="1">
  <advance width="1062"/>
  <unicode hex="0065"/>
  <outline>
    <contour>
      <point x="586" y="-18" type="curve" smooth="yes"/>
      <point x="431" y="-18"/>
      <point x="310" y="27"/>
      <point x="223" y="117" type="curve" smooth="yes"/>
      <point x="136" y="208"/>
      <point x="92" y="332"/>
      <point x="92" y="490" type="curve" smooth="yes"/>
      <point x="92" y="653"/>
      <point x="132" y="780"/>
      <point x="213" y="873" type="curve" smooth="yes"/>
      <point x="294" y="966"/>
      <point x="406" y="1013"/>
      <point x="547" y="1013" type="curve" smooth="yes"/>
      <point x="678" y="1013"/>
      <point x="782" y="973"/>
      <point x="858" y="893" type="curve"/>
      <point x="935" y="814"/>
      <point x="973" y="704"/>
      <point x="973" y="564" type="curve" smooth="yes"/>
      <point x="973" y="450" type="line"/>
      <point x="310" y="450" type="line"/>
      <point x="315" y="257"/>
      <point x="417" y="149"/>
      <point x="596" y="149" type="curve" smooth="yes"/>
      <point x="713" y="149"/>
      <point x="807" y="170"/>
      <point x="923" y="221" type="curve"/>
      <point x="923" y="49" type="line"/>
      <point x="820" y="1"/>
      <point x="722" y="-18"/>
    </contour>
    <contour>
      <point x="547" y="853" type="curve" smooth="yes"/>
      <point x="412" y="853"/>
      <point x="329" y="766"/>
      <point x="313" y="603" type="curve"/>
      <point x="765" y="603" type="line"/>
      <point x="762" y="767"/>
      <point x="682" y="853"/>
    </contour>
  </outline>
</glyph>
<glyph name="i" format="1">
  <advance width="514"/>
  <unicode hex="0069"/>
  <outline>
    <contour>
      <point x="363" y="0" type="line"/>
      <point x="151" y="0" type="line"/>
      <point x="151" y="995" type="line"/>
      <point x="363" y="995" type="line"/>
    </contour>
    <contour>
      <point x="139" y="1259" type="curve" smooth="yes"/>
      <point x="139" y="1335"/>
      <point x="182" y="1377"/>
      <point x="258" y="1377" type="curve" smooth="yes"/>
      <point x="333" y="1377"/>
      <point x="376" y="1335"/>
      <point x="376" y="1259" type="curve" smooth="yes"/>
      <point x="376" y="1187"/>
      <point x="333" y="1143"/>
      <point x="258" y="1143" type="curve" smooth="yes"/>
      <point x="182" y="1143"/>
      <point x="139" y="1187"/>
    </contour>
  </outline>
</glyph>
<glyph name="j" format="1">
  <advance width="514"/>
  <unicode hex="006A"/>
  <outline>
    <contour>
      <point x="49" y="-443" type="curve" smooth="yes"/>
      <point x="-14" y="-443"/>
      <point x="-67" y="-435"/>
      <point x="-109" y="-420" type="curve"/>
      <point x="-109" y="-253" type="line"/>
      <point x="-68" y="-264"/>
      <point x="-27" y="-269"/>
      <point x="16" y="-269" type="curve" smooth="yes"/>
      <point x="106" y="-269"/>
      <point x="151" y="-218"/>
      <point x="151" y="-116" type="curve" smooth="yes"/>
      <point x="151" y="995" type="line"/>
      <point x="363" y="995" type="line"/>
      <point x="363" y="-131" type="line" smooth="yes"/>
      <point x="363" y="-335"/>
      <point x="253" y="-443"/>
    </contour>
    <contour>
      <point x="139" y="1259" type="curve" smooth="yes"/>
      <point x="139" y="1335"/>
      <point x="182" y="1377"/>
      <point x="258" y="1377" type="curve" smooth="yes"/>
      <point x="333" y="1377"/>
      <point x="376" y="1335"/>
      <point x="376" y="1259" type="curve" smooth="yes"/>
      <point x="376" y="1187"/>
      <point x="333" y="1143"/>
      <point x="258" y="1143" type="curve" smooth="yes"/>
      <point x="182" y="1143"/>
      <point x="139" y="1187"/>
    </contour>
  </outline>
</glyph>
<glyph name="asciitilde.deva" format="1">
  <advance width="1052"/>
  <unicode hex="007E"/>
  <outline>
    <contour>
      <point x="297" y="623" type="curve" smooth="yes"/>
      <point x="237" y="623"/>
      <point x="159" y="587"/>
      <point x="86" y="514" type="curve"/>
      <point x="86" y="686" type="line"/>
      <point x="145" y="751"/>
      <point x="220" y="783"/>
      <point x="311" y="783" type="curve" smooth="yes"/>
      <point x="351" y="783"/>
      <point x="389" y="779"/>
      <point x="424" y="771" type="curve" smooth="yes"/>
      <point x="459" y="764"/>
      <point x="503" y="749"/>
      <point x="556" y="726" type="curve" smooth="yes"/>
      <point x="635" y="693"/>
      <point x="701" y="677"/>
      <point x="754" y="677" type="curve" smooth="yes"/>
      <point x="817" y="677"/>
      <point x="895" y="716"/>
      <point x="966" y="785" type="curve"/>
      <point x="966" y="614" type="line"/>
      <point x="903" y="547"/>
      <point x="828" y="514"/>
      <point x="741" y="514" type="curve" smooth="yes"/>
      <point x="662" y="514"/>
      <point x="595" y="532"/>
      <point x="494" y="573" type="curve"/>
      <point x="418" y="606"/>
      <point x="352" y="623"/>
    </contour>
  </outline>
</glyph>
<glyph name="multiply.deva" format="1">
  <advance width="1052"/>
  <unicode hex="00D7"/>
  <outline>
    <contour>
      <point x="411" y="651" type="line"/>
      <point x="118" y="944" type="line"/>
      <point x="230" y="1058" type="line"/>
      <point x="526" y="765" type="line"/>
      <point x="822" y="1058" type="line"/>
      <point x="934" y="948" type="line"/>
      <point x="638" y="651" type="line"/>
      <point x="931" y="355" type="line"/>
      <point x="820" y="243" type="line"/>
      <point x="524" y="536" type="line"/>
      <point x="232" y="243" type="line"/>
      <point x="120" y="355" type="line"/>
    </contour>
  </outline>
</glyph>
<glyph name="adeva" format="1">
  <advance width="1617"/>
  <unicode hex="0905"/>
  <outline>
    <contour>
      <point x="348" y="649" type="line"/>
      <point x="308" y="810" type="line"/>
      <point x="320" y="810" type="line"/>
      <point x="619" y="819"/>
      <point x="689" y="896"/>
      <point x="689" y="1000" type="curve" smooth="yes"/>
      <point x="689" y="1075"/>
      <point x="635" y="1131"/>
      <point x="521" y="1131" type="curve" smooth="yes"/>
      <point x="425" y="1131"/>
      <point x="328" y="1098"/>
      <point x="232" y="1044" type="curve"/>
      <point x="179" y="1204" type="line"/>
      <point x="277" y="1253"/>
      <point x="388" y="1290"/>
      <point x="527" y="1290" type="curve" smooth="yes"/>
      <point x="755" y="1290"/>
      <point x="877" y="1165"/>
      <point x="877" y="975" type="curve" smooth="yes"/>
      <point x="877" y="789"/>
      <point x="717" y="662"/>
      <point x="363" y="650" type="curve" smooth="yes"/>
    </contour>
    <contour>
      <point x="669" y="798" type="line"/>
      <point x="824" y="717"/>
      <point x="929" y="609"/>
      <point x="929" y="441" type="curve" smooth="yes"/>
      <point x="929" y="272"/>
      <point x="797" y="126"/>
      <point x="575" y="126" type="curve" smooth="yes"/>
      <point x="422" y="126"/>
      <point x="293" y="176"/>
      <point x="120" y="298" type="curve"/>
      <point x="166" y="455" type="line"/>
      <point x="308" y="342"/>
      <point x="412" y="301"/>
      <point x="519" y="301" type="curve" smooth="yes"/>
      <point x="656" y="301"/>
      <point x="737" y="375"/>
      <point x="737" y="482" type="curve" smooth="yes"/>
      <point x="737" y="567"/>
      <point x="672" y="653"/>
      <point x="553" y="702" type="curve"/>
    </contour>
    <contour>
      <point x="774" y="665" type="line"/>
      <point x="822" y="643"/>
      <point x="945" y="632"/>
      <point x="995" y="632" type="curve" smooth="yes"/>
      <point x="1062" y="632"/>
      <point x="1162" y="656"/>
      <point x="1226" y="706" type="curve"/>
      <point x="1226" y="509" type="line"/>
      <point x="1187" y="491"/>
      <point x="1099" y="478"/>
      <point x="1049" y="478" type="curve" smooth="yes"/>
      <point x="987" y="478"/>
      <point x="848" y="493"/>
      <point x="799" y="514" type="curve"/>
    </contour>
    <contour>
      <point x="1198" y="1169" type="line"/>
      <point x="1409" y="1169" type="line"/>
      <point x="1409" y="0" type="line"/>
      <point x="1198" y="0" type="line"/>
    </contour>
    <contour>
      <point x="1646" y="1136" type="line"/>
      <point x="994" y="1136" type="line"/>
      <point x="994" y="1283" type="line"/>
      <point x="1646" y="1283" type="line"/>
    </contour>
  </outline>
</glyph>
<glyph name="uudeva" format="1">
  <advance width="1429"/>
  <unicode hex="090A"/>
  <outline>
    <contour>
      <point x="829" y="452" type="curve"/>
      <point x="735" y="651" type="line"/>
      <point x="823" y="699"/>
      <point x="915" y="738"/>
      <point x="1064" y="738" type="curve" smooth="yes"/>
      <point x="1272" y="738"/>
      <point x="1418" y="601"/>
      <point x="1418" y="405" type="curve" smooth="yes"/>
      <point x="1418" y="278"/>
      <point x="1374" y="172"/>
      <point x="1291" y="59" type="curve"/>
      <point x="1111" y="131" type="line"/>
      <point x="1190" y="250"/>
      <point x="1227" y="332"/>
      <point x="1227" y="428" type="curve" smooth="yes"/>
      <point x="1227" y="514"/>
      <point x="1167" y="567"/>
      <point x="1074" y="567" type="curve" smooth="yes"/>
      <point x="983" y="567"/>
      <point x="902" y="526"/>
    </contour>
    <contour>
      <point x="1039" y="1136" type="line"/>
      <point x="1039" y="1283" type="line"/>
      <point x="1473" y="1283" type="line"/>
      <point x="1473" y="1136" type="line"/>
    </contour>
    <component base="udeva"/>
    <contour>
      <point x="862" y="1282" type="move" name="mark0"/>
    </contour>
    <contour>
      <point x="30" y="8" type="move" name="x53"/>
    </contour>
  </outline>
</glyph>
<glyph name="khadeva" format="1">
  <advance width="1680"/>
  <unicode hex="0916"/>
  <outline>
    <contour>
      <point x="1296" y="659" type="curve"/>
      <point x="1296" y="446" type="line"/>
      <point x="1225" y="405"/>
      <point x="1157" y="377"/>
      <point x="1068" y="377" type="curve" smooth="yes"/>
      <point x="881" y="377"/>
      <point x="717" y="512"/>
      <point x="717" y="698" type="curve" smooth="yes"/>
      <point x="717" y="842"/>
      <point x="827" y="956"/>
      <point x="1022" y="956" type="curve" smooth="yes"/>
      <point x="1133" y="956"/>
      <point x="1222" y="924"/>
      <point x="1308" y="878" type="curve"/>
      <point x="1308" y="732" type="line"/>
      <point x="1235" y="780"/>
      <point x="1149" y="807"/>
      <point x="1070" y="807" type="curve" smooth="yes"/>
      <point x="944" y="807"/>
      <point x="889" y="735"/>
      <point x="889" y="665" type="curve" smooth="yes"/>
      <point x="889" y="591"/>
      <point x="955" y="528"/>
      <point x="1039" y="528" type="curve" smooth="yes"/>
      <point x="1134" y="528"/>
      <point x="1221" y="566"/>
    </contour>
    <contour>
      <point x="220" y="674" type="line"/>
      <point x="390" y="735"/>
      <point x="435" y="818"/>
      <point x="435" y="971" type="curve" smooth="yes"/>
      <point x="435" y="1192" type="line"/>
      <point x="646" y="1192" type="line"/>
      <point x="646" y="956" type="line"/>
      <point x="646" y="766"/>
      <point x="593" y="603"/>
      <point x="340" y="493" type="curve"/>
    </contour>
    <contour>
      <point x="-35" y="1136" type="line"/>
      <point x="-35" y="1283" type="line"/>
      <point x="1709" y="1283" type="line"/>
      <point x="1709" y="1136" type="line"/>
    </contour>
    <contour>
      <point x="300" y="623" type="line"/>
      <point x="473" y="293"/>
      <point x="729" y="179"/>
      <point x="970" y="179" type="curve" smooth="yes"/>
      <point x="1132" y="179"/>
      <point x="1215" y="203"/>
      <point x="1352" y="288" type="curve"/>
      <point x="1399" y="129" type="line"/>
      <point x="1265" y="70"/>
      <point x="1136" y="37"/>
      <point x="958" y="37" type="curve" smooth="yes"/>
      <point x="749" y="37"/>
      <point x="522" y="94"/>
      <point x="330" y="286" type="curve" smooth="yes"/>
      <point x="166" y="450"/>
      <point x="44" y="670"/>
      <point x="44" y="740" type="curve" smooth="yes"/>
      <point x="44" y="789"/>
      <point x="81" y="824"/>
      <point x="134" y="824" type="curve" smooth="yes"/>
      <point x="184" y="824"/>
      <point x="221" y="789"/>
      <point x="268" y="722" type="curve" smooth="yes"/>
      <point x="317" y="649" type="line"/>
    </contour>
    <contour>
      <point x="1261" y="1169" type="line"/>
      <point x="1472" y="1169" type="line"/>
      <point x="1472" y="0" type="line"/>
      <point x="1261" y="0" type="line"/>
    </contour>
  </outline>
</glyph>
<glyph name="ghadeva" format="1">
  <advance width="1361"/>
  <unicode hex="0918"/>
  <outline>
    <contour>
      <point x="423" y="739" type="line"/>
      <point x="213" y="794"/>
      <point x="118" y="914"/>
      <point x="118" y="1055" type="curve" smooth="yes"/>
      <point x="118" y="1120"/>
      <point x="134" y="1177"/>
      <point x="177" y="1232" type="curve"/>
      <point x="381" y="1183" type="line"/>
      <point x="344" y="1128"/>
      <point x="329" y="1092"/>
      <point x="329" y="1037" type="curve" smooth="yes"/>
      <point x="329" y="953"/>
      <point x="386" y="877"/>
      <point x="581" y="856" type="curve"/>
    </contour>
    <contour>
      <point x="-44" y="1136" type="line"/>
      <point x="-44" y="1283" type="line"/>
      <point x="1391" y="1283" type="line"/>
      <point x="1391" y="1136" type="line"/>
    </contour>
    <contour>
      <point x="987" y="589" type="curve"/>
      <point x="989" y="307" type="line"/>
      <point x="900" y="248"/>
      <point x="782" y="216"/>
      <point x="667" y="216" type="curve" smooth="yes"/>
      <point x="436" y="216"/>
      <point x="285" y="373"/>
      <point x="285" y="561" type="curve" smooth="yes"/>
      <point x="285" y="718"/>
      <point x="401" y="886"/>
      <point x="696" y="886" type="curve" smooth="yes"/>
      <point x="707" y="886" type="line"/>
      <point x="760" y="720" type="line"/>
      <point x="746" y="720" type="line"/>
      <point x="544" y="713"/>
      <point x="474" y="629"/>
      <point x="474" y="535" type="curve" smooth="yes"/>
      <point x="474" y="447"/>
      <point x="548" y="386"/>
      <point x="646" y="387" type="curve" smooth="yes"/>
      <point x="776" y="389"/>
      <point x="906" y="469"/>
    </contour>
    <contour>
      <point x="942" y="1169" type="line"/>
      <point x="1153" y="1169" type="line"/>
      <point x="1153" y="0" type="line"/>
      <point x="942" y="0" type="line"/>
    </contour>
  </outline>
</glyph>
<glyph name="ngadeva" format="1">
  <advance width="1330"/>
  <unicode hex="0919"/>
  <outline>
    <contour>
      <point x="1053" y="877" type="curve"/>
      <point x="1053" y="910"/>
      <point x="1067" y="1031"/>
      <point x="1094" y="1031" type="curve"/>
      <point x="1121" y="1031"/>
      <point x="1308" y="1014"/>
      <point x="1308" y="981" type="curve"/>
      <point x="1308" y="949"/>
      <point x="1294" y="827"/>
      <point x="1266" y="827" type="curve"/>
      <point x="1239" y="827"/>
      <point x="1053" y="844"/>
    </contour>
    <contour>
      <point x="1142" y="1029" type="curve" smooth="yes"/>
      <point x="1203" y="1029"/>
      <point x="1222" y="1034"/>
      <point x="1222" y="1006" type="curve" smooth="yes"/>
      <point x="1222" y="978"/>
      <point x="1330" y="941"/>
      <point x="1273" y="941" type="curve" smooth="yes"/>
      <point x="1212" y="941"/>
      <point x="1192" y="936"/>
      <point x="1192" y="964" type="curve" smooth="yes"/>
      <point x="1192" y="991"/>
      <point x="1083" y="1029"/>
    </contour>
    <component base="ddadeva"/>
    <contour>
      <point x="30" y="8" type="move" name="x56"/>
    </contour>
    <contour>
      <point x="1719" y="8" type="move" name="x57"/>
    </contour>
    <contour>
      <point x="835" y="8" type="move" name="mark0"/>
    </contour>
  </outline>
</glyph>
<glyph name="cadeva" format="1">
  <advance width="1330"/>
  <unicode hex="091A"/>
  <outline>
    <contour>
      <point x="42" y="737" type="line"/>
      <point x="42" y="900" type="line"/>
      <point x="757" y="900" type="line"/>
      <point x="757" y="737" type="line"/>
    </contour>
    <contour>
      <point x="948" y="604" type="curve"/>
      <point x="948" y="325" type="line"/>
      <point x="881" y="273"/>
      <point x="801" y="226"/>
      <point x="669" y="226" type="curve" smooth="yes"/>
      <point x="416" y="226"/>
      <point x="269" y="378"/>
      <point x="269" y="571" type="curve" smooth="yes"/>
      <point x="269" y="746"/>
      <point x="386" y="887"/>
      <point x="643" y="887" type="curve"/>
      <point x="674" y="738" type="line"/>
      <point x="540" y="739"/>
      <point x="467" y="641"/>
      <point x="467" y="547" type="curve" smooth="yes"/>
      <point x="467" y="460"/>
      <point x="545" y="395"/>
      <point x="642" y="395" type="curve" smooth="yes"/>
      <point x="756" y="395"/>
      <point x="872" y="456"/>
    </contour>
    <contour>
      <point x="-19" y="1136" type="line"/>
      <point x="-19" y="1283" type="line"/>
      <point x="1359" y="1283" type="line"/>
      <point x="1359" y="1136" type="line"/>
    </contour>
    <contour>
      <point x="911" y="1169" type="line"/>
      <point x="1122" y="1169" type="line"/>
      <point x="1122" y="0" type="line"/>
      <point x="911" y="0" type="line"/>
    </contour>
  </outline>
</glyph>
<glyph name="chadeva" format="1">
  <advance width="1473"/>
  <unicode hex="091B"/>
  <outline>
    <contour>
      <point x="639" y="784" type="curve"/>
      <point x="693" y="620" type="line"/>
      <point x="691" y="620"/>
      <point x="689" y="620"/>
      <point x="687" y="620" type="curve" smooth="yes"/>
      <point x="472" y="611"/>
      <point x="404" y="512"/>
      <point x="404" y="416" type="curve" smooth="yes"/>
      <point x="404" y="306"/>
      <point x="497" y="217"/>
      <point x="673" y="217" type="curve" smooth="yes"/>
      <point x="952" y="217"/>
      <point x="1217" y="465"/>
      <point x="1217" y="669" type="curve" smooth="yes"/>
      <point x="1217" y="784"/>
      <point x="1156" y="844"/>
      <point x="1080" y="844" type="curve" smooth="yes"/>
      <point x="1015" y="844"/>
      <point x="967" y="782"/>
      <point x="967" y="702" type="curve" smooth="yes"/>
      <point x="967" y="611"/>
      <point x="1032" y="522"/>
      <point x="1220" y="390" type="curve"/>
      <point x="1121" y="287" type="line"/>
      <point x="891" y="438"/>
      <point x="790" y="564"/>
      <point x="790" y="741" type="curve" smooth="yes"/>
      <point x="790" y="867"/>
      <point x="876" y="998"/>
      <point x="1054" y="998" type="curve" smooth="yes"/>
      <point x="1252" y="998"/>
      <point x="1390" y="865"/>
      <point x="1390" y="650" type="curve" smooth="yes"/>
      <point x="1390" y="374"/>
      <point x="1086" y="53"/>
      <point x="685" y="53" type="curve" smooth="yes"/>
      <point x="357" y="53"/>
      <point x="198" y="240"/>
      <point x="198" y="446" type="curve" smooth="yes"/>
      <point x="198" y="622"/>
      <point x="338" y="779"/>
      <point x="634" y="784" type="curve" smooth="yes"/>
      <point x="636" y="784"/>
      <point x="637" y="784"/>
    </contour>
    <contour>
      <point x="536" y="746" type="curve"/>
      <point x="388" y="633" type="line"/>
      <point x="184" y="693"/>
      <point x="98" y="814"/>
      <point x="98" y="969" type="curve" smooth="yes"/>
      <point x="98" y="1088"/>
      <point x="195" y="1233"/>
      <point x="448" y="1263" type="curve"/>
      <point x="540" y="1156" type="line"/>
      <point x="371" y="1134"/>
      <point x="303" y="1034"/>
      <point x="303" y="947" type="curve" smooth="yes"/>
      <point x="303" y="862"/>
      <point x="352" y="778"/>
    </contour>
    <contour>
      <point x="1496" y="1136" type="line"/>
      <point x="-51" y="1136" type="line"/>
      <point x="-51" y="1283" type="line"/>
      <point x="1496" y="1283" type="line"/>
    </contour>
    <contour>
      <point x="967" y="1189" type="line"/>
      <point x="1178" y="1189" type="line"/>
      <point x="1178" y="921" type="line"/>
      <point x="967" y="921" type="line"/>
    </contour>
    <contour>
      <point x="843" y="8" type="move" name="mark0"/>
    </contour>
    <contour>
      <point x="-59" y="8" type="move" name="x65"/>
    </contour>
    <contour>
      <point x="1618" y="8" type="move" name="x66"/>
    </contour>
  </outline>
</glyph>
<glyph name="tthadeva" format="1">
  <advance width="1222"/>
  <unicode hex="0920"/>
  <outline>
    <contour>
      <point x="911" y="502" type="curve" smooth="yes"/>
      <point x="911" y="600"/>
      <point x="847" y="692"/>
      <point x="753" y="732" type="curve"/>
      <point x="606" y="732" type="line"/>
      <point x="376" y="732"/>
      <point x="279" y="625"/>
      <point x="279" y="485" type="curve" smooth="yes"/>
      <point x="279" y="351"/>
      <point x="393" y="243"/>
      <point x="595" y="243" type="curve" smooth="yes"/>
      <point x="793" y="243"/>
      <point x="911" y="356"/>
    </contour>
    <contour>
      <point x="1224" y="1136" type="line"/>
      <point x="-31" y="1136" type="line"/>
      <point x="-31" y="1283" type="line"/>
      <point x="1224" y="1283" type="line"/>
    </contour>
    <contour>
      <point x="629" y="1167" type="line"/>
      <point x="831" y="1167" type="line"/>
      <point x="831" y="827" type="line"/>
      <point x="796" y="878" type="line"/>
      <point x="983" y="815"/>
      <point x="1106" y="657"/>
      <point x="1106" y="471" type="curve" smooth="yes"/>
      <point x="1106" y="258"/>
      <point x="940" y="84"/>
      <point x="638" y="84" type="curve" smooth="yes"/>
      <point x="261" y="84"/>
      <point x="74" y="290"/>
      <point x="74" y="518" type="curve" smooth="yes"/>
      <point x="74" y="729"/>
      <point x="238" y="887"/>
      <point x="510" y="887" type="curve" smooth="yes"/>
      <point x="670" y="887" type="line"/>
      <point x="629" y="851" type="line"/>
    </contour>
    <contour>
      <point x="584" y="8" type="move" name="mark0"/>
    </contour>
    <contour>
      <point x="-34" y="8" type="move" name="x34"/>
    </contour>
    <contour>
      <point x="1330" y="8" type="move" name="x35"/>
    </contour>
  </outline>
</glyph>
<glyph name="nnadeva" format="1">
  <advance width="1597"/>
  <unicode hex="0923"/>
  <outline>
    <contour>
      <point x="682" y="1167" type="line"/>
      <point x="892" y="1167" type="line"/>
      <point x="892" y="707" type="line"/>
      <point x="892" y="471"/>
      <point x="788" y="327"/>
      <point x="532" y="327" type="curve" smooth="yes"/>
      <point x="279" y="327"/>
      <point x="138" y="477"/>
      <point x="138" y="719" type="curve" smooth="yes"/>
      <point x="138" y="1167" type="line"/>
      <point x="349" y="1167" type="line"/>
      <point x="349" y="678" type="line"/>
      <point x="349" y="557"/>
      <point x="409" y="494"/>
      <point x="506" y="494" type="curve" smooth="yes"/>
      <point x="623" y="494"/>
      <point x="682" y="565"/>
      <point x="682" y="716" type="curve" smooth="yes"/>
    </contour>
    <contour>
      <point x="-45" y="1136" type="line"/>
      <point x="-45" y="1283" type="line"/>
      <point x="1626" y="1283" type="line"/>
      <point x="1626" y="1136" type="line"/>
    </contour>
    <contour>
      <point x="1179" y="1169" type="line"/>
      <point x="1390" y="1169" type="line"/>
      <point x="1390" y="0" type="line"/>
      <point x="1179" y="0" type="line"/>
    </contour>
  </outline>
</glyph>
<glyph name="tadeva" format="1">
  <advance width="1190"/>
  <unicode hex="0924"/>
  <outline>
    <contour>
      <point x="827" y="885" type="line"/>
      <point x="827" y="708" type="line"/>
      <point x="535" y="708" type="line"/>
      <point x="381" y="708"/>
      <point x="302" y="614"/>
      <point x="302" y="489" type="curve" smooth="yes"/>
      <point x="302" y="372"/>
      <point x="351" y="245"/>
      <point x="481" y="26" type="curve"/>
      <point x="312" y="-17" type="line"/>
      <point x="173" y="202"/>
      <point x="106" y="386"/>
      <point x="106" y="547" type="curve" smooth="yes"/>
      <point x="106" y="746"/>
      <point x="226" y="885"/>
      <point x="487" y="885" type="curve" smooth="yes"/>
    </contour>
    <contour>
      <point x="-22" y="1136" type="line"/>
      <point x="-22" y="1283" type="line"/>
      <point x="1219" y="1283" type="line"/>
      <point x="1219" y="1136" type="line"/>
    </contour>
    <contour>
      <point x="771" y="1169" type="line"/>
      <point x="982" y="1169" type="line"/>
      <point x="982" y="0" type="line"/>
      <point x="771" y="0" type="line"/>
    </contour>
  </outline>
</glyph>
<glyph name="dadeva" format="1">
  <advance width="1078"/>
  <unicode hex="0926"/>
  <outline>
    <contour>
      <point x="-36" y="1136" type="line"/>
      <point x="-36" y="1283" type="line"/>
      <point x="1089" y="1283" type="line"/>
      <point x="1089" y="1136" type="line"/>
    </contour>
    <contour>
      <point x="671" y="198" type="line"/>
      <point x="828" y="252" type="line"/>
      <point x="1011" y="-111" type="line"/>
      <point x="853" y="-164" type="line"/>
    </contour>
    <contour>
      <point x="582" y="124" type="curve" smooth="yes"/>
      <point x="287" y="124"/>
      <point x="78" y="307"/>
      <point x="78" y="535" type="curve" smooth="yes"/>
      <point x="78" y="732"/>
      <point x="231" y="887"/>
      <point x="529" y="887" type="curve" smooth="yes"/>
      <point x="708" y="887" type="line"/>
      <point x="664" y="836" type="line"/>
      <point x="664" y="1177" type="line"/>
      <point x="866" y="1177" type="line"/>
      <point x="866" y="728" type="line"/>
      <point x="617" y="728" type="line"/>
      <point x="379" y="728"/>
      <point x="289" y="623"/>
      <point x="289" y="494" type="curve" smooth="yes"/>
      <point x="289" y="370"/>
      <point x="409" y="270"/>
      <point x="561" y="270" type="curve" smooth="yes"/>
      <point x="611" y="270"/>
      <point x="664" y="276"/>
      <point x="749" y="309" type="curve"/>
      <point x="655" y="232" type="line"/>
      <point x="625" y="281"/>
      <point x="611" y="332"/>
      <point x="611" y="363" type="curve" smooth="yes"/>
      <point x="611" y="408"/>
      <point x="645" y="451"/>
      <point x="726" y="451" type="curve" smooth="yes"/>
      <point x="874" y="451"/>
      <point x="978" y="384"/>
      <point x="978" y="316" type="curve" smooth="yes"/>
      <point x="978" y="232"/>
      <point x="826" y="124"/>
    </contour>
    <contour>
      <point x="815" y="8" type="move" name="mark0"/>
    </contour>
    <contour>
      <point x="1155" y="8" type="move" name="x43"/>
    </contour>
    <contour>
      <point x="-76" y="8" type="move" name="x42"/>
    </contour>
  </outline>
</glyph>
<glyph name="phadeva" format="1">
  <advance width="1566"/>
  <unicode hex="092B"/>
  <outline>
    <contour>
      <point x="349" y="1207" type="line"/>
      <point x="349" y="754" type="line"/>
      <point x="349" y="630"/>
      <point x="406" y="556"/>
      <point x="523" y="556" type="curve" smooth="yes"/>
      <point x="609" y="556"/>
      <point x="684" y="583"/>
      <point x="775" y="651" type="curve"/>
      <point x="775" y="435" type="line"/>
      <point x="709" y="406"/>
      <point x="634" y="390"/>
      <point x="554" y="390" type="curve" smooth="yes"/>
      <point x="298" y="390"/>
      <point x="138" y="554"/>
      <point x="138" y="802" type="curve" smooth="yes"/>
      <point x="138" y="1207" type="line"/>
    </contour>
    <contour>
      <point x="924" y="491" type="curve"/>
      <point x="899" y="728" type="line"/>
      <point x="967" y="755"/>
      <point x="1056" y="786"/>
      <point x="1167" y="786" type="curve" smooth="yes"/>
      <point x="1379" y="786"/>
      <point x="1522" y="641"/>
      <point x="1522" y="447" type="curve" smooth="yes"/>
      <point x="1522" y="324"/>
      <point x="1480" y="192"/>
      <point x="1403" y="83" type="curve"/>
      <point x="1231" y="149" type="line"/>
      <point x="1307" y="269"/>
      <point x="1343" y="370"/>
      <point x="1343" y="474" type="curve" smooth="yes"/>
      <point x="1343" y="559"/>
      <point x="1281" y="612"/>
      <point x="1196" y="612" type="curve" smooth="yes"/>
      <point x="1103" y="612"/>
      <point x="1002" y="570"/>
    </contour>
    <contour>
      <point x="-51" y="1136" type="line"/>
      <point x="-51" y="1283" type="line"/>
      <point x="1597" y="1283" type="line"/>
      <point x="1597" y="1136" type="line"/>
    </contour>
    <contour>
      <point x="738" y="1169" type="line"/>
      <point x="949" y="1169" type="line"/>
      <point x="949" y="0" type="line"/>
      <point x="738" y="0" type="line"/>
    </contour>
    <contour>
      <point x="851" y="8" type="move" name="mark0"/>
    </contour>
    <contour>
      <point x="13" y="8" type="move" name="x43"/>
    </contour>
    <contour>
      <point x="851" y="8" type="move" name="x2"/>
    </contour>
  </outline>
</glyph>
<glyph name="bhadeva" format="1">
  <advance width="1343"/>
  <unicode hex="092D"/>
  <outline>
    <contour>
      <point x="362" y="1023" type="line"/>
      <point x="362" y="1135"/>
      <point x="316" y="1184"/>
      <point x="240" y="1184" type="curve" smooth="yes"/>
      <point x="169" y="1184"/>
      <point x="140" y="1138"/>
      <point x="139" y="1076" type="curve" smooth="yes"/>
      <point x="138" y="993"/>
      <point x="207" y="914"/>
      <point x="411" y="899" type="curve"/>
      <point x="388" y="773" type="line"/>
      <point x="124" y="782"/>
      <point x="-47" y="908"/>
      <point x="-47" y="1109" type="curve" smooth="yes"/>
      <point x="-47" y="1229"/>
      <point x="32" y="1339"/>
      <point x="221" y="1339" type="curve" smooth="yes"/>
      <point x="445" y="1339"/>
      <point x="573" y="1202"/>
      <point x="573" y="983" type="curve" smooth="yes"/>
      <point x="573" y="623" type="line"/>
      <point x="541" y="656" type="line"/>
      <point x="968" y="656" type="line"/>
      <point x="968" y="490" type="line"/>
      <point x="534" y="490" type="line"/>
      <point x="573" y="524" type="line"/>
      <point x="573" y="384" type="line"/>
      <point x="573" y="327"/>
      <point x="552" y="296"/>
      <point x="496" y="296" type="curve" smooth="yes"/>
      <point x="391" y="296"/>
      <point x="219" y="485"/>
      <point x="219" y="574" type="curve" smooth="yes"/>
      <point x="219" y="628"/>
      <point x="247" y="655"/>
      <point x="298" y="655" type="curve" smooth="yes"/>
      <point x="394" y="655" type="line"/>
      <point x="362" y="626" type="line"/>
    </contour>
    <contour>
      <point x="924" y="1169" type="line"/>
      <point x="1135" y="1169" type="line"/>
      <point x="1135" y="0" type="line"/>
      <point x="924" y="0" type="line"/>
    </contour>
    <contour>
      <point x="1372" y="1136" type="line"/>
      <point x="765" y="1136" type="line"/>
      <point x="765" y="1283" type="line"/>
      <point x="1372" y="1283" type="line"/>
    </contour>
  </outline>
</glyph>
<glyph name="radeva" format="1">
  <advance width="910"/>
  <unicode hex="0930"/>
  <outline>
    <contour>
      <point x="744" y="73" type="line"/>
      <point x="599" y="-26" type="line"/>
      <point x="131" y="603" type="line"/>
      <point x="70" y="683"/>
      <point x="42" y="726"/>
      <point x="42" y="773" type="curve" smooth="yes"/>
      <point x="42" y="815"/>
      <point x="79" y="854"/>
      <point x="130" y="854" type="curve" smooth="yes"/>
      <point x="184" y="854"/>
      <point x="226" y="800"/>
      <point x="280" y="726" type="curve" smooth="yes"/>
      <point x="367" y="606" type="line"/>
      <point x="365" y="587" type="line"/>
    </contour>
    <contour>
      <point x="279" y="642" type="line"/>
      <point x="449" y="684"/>
      <point x="517" y="780"/>
      <point x="517" y="937" type="curve" smooth="yes"/>
      <point x="517" y="1179" type="line"/>
      <point x="728" y="1179" type="line"/>
      <point x="728" y="905" type="line"/>
      <point x="728" y="724"/>
      <point x="635" y="543"/>
      <point x="403" y="475" type="curve"/>
    </contour>
    <contour>
      <point x="-51" y="1136" type="line"/>
      <point x="-51" y="1283" type="line"/>
      <point x="967" y="1283" type="line"/>
      <point x="967" y="1136" type="line"/>
    </contour>
    <contour>
      <point x="15" y="8" type="move" name="x27"/>
    </contour>
    <contour>
      <point x="529" y="8" type="move" name="mark0"/>
    </contour>
  </outline>
</glyph>
<glyph name="ladeva" format="1">
  <advance width="1425"/>
  <unicode hex="0932"/>
  <outline>
    <contour>
      <point x="1076" y="958" type="line"/>
      <point x="1076" y="710" type="line"/>
      <point x="638" y="313" type="line"/>
      <point x="509" y="443" type="line"/>
    </contour>
    <contour>
      <point x="861" y="657" type="curve"/>
      <point x="739" y="543" type="line"/>
      <point x="630" y="675"/>
      <point x="556" y="713"/>
      <point x="447" y="713" type="curve" smooth="yes"/>
      <point x="331" y="713"/>
      <point x="249" y="617"/>
      <point x="248" y="512" type="curve" smooth="yes"/>
      <point x="247" y="393"/>
      <point x="314" y="279"/>
      <point x="473" y="117" type="curve"/>
      <point x="317" y="41" type="line"/>
      <point x="148" y="217"/>
      <point x="49" y="386"/>
      <point x="49" y="571" type="curve" smooth="yes"/>
      <point x="49" y="751"/>
      <point x="186" y="901"/>
      <point x="404" y="901" type="curve" smooth="yes"/>
      <point x="591" y="901"/>
      <point x="721" y="807"/>
    </contour>
    <contour>
      <point x="-40" y="1136" type="line"/>
      <point x="-40" y="1283" type="line"/>
      <point x="1453" y="1283" type="line"/>
      <point x="1453" y="1136" type="line"/>
    </contour>
    <contour>
      <point x="1006" y="1169" type="line"/>
      <point x="1217" y="1169" type="line"/>
      <point x="1217" y="0" type="line"/>
      <point x="1006" y="0" type="line"/>
    </contour>
  </outline>
</glyph>
<glyph name="vadeva" format="1">
  <advance width="1169"/>
  <unicode hex="0935"/>
  <outline>
    <contour>
      <point x="1197" y="1136" type="line"/>
      <point x="-21" y="1136" type="line"/>
      <point x="-21" y="1283" type="line"/>
      <point x="1197" y="1283" type="line"/>
    </contour>
    <contour>
      <point x="784" y="557" type="curve"/>
      <point x="784" y="327" type="line"/>
      <point x="708" y="260"/>
      <point x="604" y="229"/>
      <point x="510" y="229" type="curve" smooth="yes"/>
      <point x="247" y="229"/>
      <point x="78" y="428"/>
      <point x="78" y="634" type="curve" smooth="yes"/>
      <point x="78" y="811"/>
      <point x="229" y="942"/>
      <point x="436" y="942" type="curve" smooth="yes"/>
      <point x="607" y="942"/>
      <point x="687" y="919"/>
      <point x="824" y="855" type="curve"/>
      <point x="823" y="690" type="line"/>
      <point x="688" y="765"/>
      <point x="619" y="784"/>
      <point x="499" y="784" type="curve" smooth="yes"/>
      <point x="351" y="784"/>
      <point x="270" y="700"/>
      <point x="270" y="593" type="curve" smooth="yes"/>
      <point x="270" y="490"/>
      <point x="350" y="396"/>
      <point x="477" y="396" type="curve" smooth="yes"/>
      <point x="590" y="396"/>
      <point x="688" y="439"/>
    </contour>
    <contour>
      <point x="750" y="1169" type="line"/>
      <point x="961" y="1169" type="line"/>
      <point x="961" y="0" type="line"/>
      <point x="750" y="0" type="line"/>
    </contour>
  </outline>
</glyph>
<glyph name="shadeva" format="1">
  <advance width="1517"/>
  <unicode hex="0936"/>
  <outline>
    <contour>
      <point x="492" y="444" type="line"/>
      <point x="831" y="98" type="line"/>
      <point x="704" y="-16" type="line"/>
      <point x="340" y="360" type="line"/>
    </contour>
    <contour>
      <point x="251" y="282" type="curve" smooth="yes"/>
      <point x="167" y="282"/>
      <point x="129" y="352"/>
      <point x="129" y="423" type="curve" smooth="yes"/>
      <point x="129" y="502"/>
      <point x="188" y="598"/>
      <point x="272" y="598" type="curve" smooth="yes"/>
      <point x="334" y="598"/>
      <point x="385" y="560"/>
      <point x="455" y="484" type="curve"/>
      <point x="364" y="492" type="line"/>
      <point x="554" y="556"/>
      <point x="698" y="723"/>
      <point x="698" y="930" type="curve" smooth="yes"/>
      <point x="698" y="1058"/>
      <point x="596" y="1162"/>
      <point x="478" y="1162" type="curve" smooth="yes"/>
      <point x="397" y="1162"/>
      <point x="346" y="1109"/>
      <point x="347" y="1037" type="curve" smooth="yes"/>
      <point x="348" y="947"/>
      <point x="448" y="846"/>
      <point x="748" y="832" type="curve"/>
      <point x="697" y="701" type="line"/>
      <point x="315" y="730"/>
      <point x="158" y="896"/>
      <point x="158" y="1067" type="curve" smooth="yes"/>
      <point x="158" y="1197"/>
      <point x="254" y="1314"/>
      <point x="450" y="1314" type="curve" smooth="yes"/>
      <point x="702" y="1314"/>
      <point x="873" y="1145"/>
      <point x="873" y="896" type="curve" smooth="yes"/>
      <point x="873" y="552"/>
      <point x="476" y="282"/>
    </contour>
    <contour>
      <point x="1098" y="1169" type="line"/>
      <point x="1309" y="1169" type="line"/>
      <point x="1309" y="0" type="line"/>
      <point x="1098" y="0" type="line"/>
    </contour>
    <contour>
      <point x="1546" y="1136" type="line"/>
      <point x="932" y="1136" type="line"/>
      <point x="932" y="1283" type="line"/>
      <point x="1546" y="1283" type="line"/>
    </contour>
  </outline>
</glyph>
<glyph name="sadeva" format="1">
  <advance width="1468"/>
  <unicode hex="0938"/>
  <outline>
    <contour>
      <point x="735" y="73" type="line"/>
      <point x="586" y="-26" type="line"/>
      <point x="116" y="611" type="line"/>
      <point x="60" y="685"/>
      <point x="34" y="729"/>
      <point x="34" y="772" type="curve" smooth="yes"/>
      <point x="34" y="817"/>
      <point x="73" y="854"/>
      <point x="120" y="854" type="curve" smooth="yes"/>
      <point x="170" y="854"/>
      <point x="211" y="810"/>
      <point x="266" y="734" type="curve" smooth="yes"/>
      <point x="349" y="619" type="line"/>
      <point x="346" y="602" type="line"/>
    </contour>
    <contour>
      <point x="226" y="645" type="line"/>
      <point x="387" y="687"/>
      <point x="456" y="780"/>
      <point x="456" y="942" type="curve" smooth="yes"/>
      <point x="456" y="1179" type="line"/>
      <point x="667" y="1179" type="line"/>
      <point x="667" y="910" type="line"/>
      <point x="667" y="728"/>
      <point x="578" y="561"/>
      <point x="341" y="484" type="curve"/>
    </contour>
    <contour>
      <point x="-38" y="1136" type="line"/>
      <point x="-38" y="1283" type="line"/>
      <point x="1497" y="1283" type="line"/>
      <point x="1497" y="1136" type="line"/>
    </contour>
    <contour>
      <point x="474" y="575" type="curve"/>
      <point x="549" y="722" type="line"/>
      <point x="648" y="681"/>
      <point x="744" y="666"/>
      <point x="819" y="666" type="curve" smooth="yes"/>
      <point x="909" y="666"/>
      <point x="999" y="678"/>
      <point x="1073" y="703" type="curve"/>
      <point x="1073" y="521" type="line"/>
      <point x="1020" y="505"/>
      <point x="940" y="490"/>
      <point x="849" y="490" type="curve" smooth="yes"/>
      <point x="746" y="490"/>
      <point x="614" y="514"/>
    </contour>
    <contour>
      <point x="1049" y="1169" type="line"/>
      <point x="1260" y="1169" type="line"/>
      <point x="1260" y="0" type="line"/>
      <point x="1049" y="0" type="line"/>
    </contour>
  </outline>
</glyph>
<glyph name="iivowelsigndeva" format="1">
  <advance width="592"/>
  <unicode hex="0940"/>
  <outline>
    <contour>
      <point x="171" y="1239" type="line"/>
      <point x="79" y="1465"/>
      <point x="-78" y="1620"/>
      <point x="-228" y="1620" type="curve" smooth="yes"/>
      <point x="-320" y="1620"/>
      <point x="-370" y="1565"/>
      <point x="-370" y="1490" type="curve" smooth="yes"/>
      <point x="-370" y="1415"/>
      <point x="-331" y="1348"/>
      <point x="-253" y="1256" type="curve"/>
      <point x="-450" y="1256" type="line"/>
      <point x="-513" y="1326"/>
      <point x="-569" y="1429"/>
      <point x="-569" y="1541" type="curve" smooth="yes"/>
      <point x="-569" y="1663"/>
      <point x="-484" y="1796"/>
      <point x="-279" y="1796" type="curve" smooth="yes"/>
      <point x="-15" y="1796"/>
      <point x="218" y="1592"/>
      <point x="363" y="1239" type="curve"/>
    </contour>
    <component base="aavowelsigndeva"/>
  </outline>
</glyph>
<glyph name="uvowelsigndeva" format="1">
  <advance width="0"/>
  <unicode hex="0941"/>
  <outline>
    <contour>
      <point x="-637" y="-88" type="line"/>
      <point x="-545" y="-24"/>
      <point x="-460" y="17"/>
      <point x="-317" y="17" type="curve" smooth="yes"/>
      <point x="-141" y="17"/>
      <point x="3" y="-112"/>
      <point x="3" y="-289" type="curve" smooth="yes"/>
      <point x="3" y="-469"/>
      <point x="-144" y="-574"/>
      <point x="-343" y="-574" type="curve" smooth="yes"/>
      <point x="-529" y="-574"/>
      <point x="-701" y="-506"/>
      <point x="-901" y="-360" type="curve"/>
      <point x="-839" y="-224" type="line"/>
      <point x="-646" y="-370"/>
      <point x="-502" y="-418"/>
      <point x="-392" y="-418" type="curve" smooth="yes"/>
      <point x="-258" y="-418"/>
      <point x="-173" y="-353"/>
      <point x="-173" y="-270" type="curve" smooth="yes"/>
      <point x="-173" y="-190"/>
      <point x="-239" y="-137"/>
      <point x="-326" y="-137" type="curve" smooth="yes"/>
      <point x="-407" y="-137"/>
      <point x="-484" y="-175"/>
      <point x="-556" y="-233" type="curve"/>
    </contour>
    <contour>
      <point x="49" y="8" type="move" name="x24"/>
    </contour>
    <contour>
      <point x="-424" y="8" type="move" name="_mark0"/>
    </contour>
  </outline>
</glyph>
<glyph name="rvocalicvowelsigndeva" format="1">
  <advance width="0"/>
  <unicode hex="0943"/>
  <outline>
    <contour>
      <point x="-23" y="-535" type="line"/>
      <point x="-118" y="-571"/>
      <point x="-184" y="-585"/>
      <point x="-269" y="-585" type="curve" smooth="yes"/>
      <point x="-466" y="-585"/>
      <point x="-633" y="-479"/>
      <point x="-633" y="-284" type="curve" smooth="yes"/>
      <point x="-633" y="-106"/>
      <point x="-474" y="-1"/>
      <point x="-279" y="8" type="curve" smooth="yes"/>
      <point x="-239" y="8"/>
      <point x="-207" y="-44"/>
      <point x="-186" y="-51" type="curve"/>
      <point x="-253" y="-61"/>
      <point x="-317" y="-169"/>
      <point x="-317" y="-246" type="curve"/>
      <point x="-334" y="-312"/>
      <point x="-291" y="-342"/>
      <point x="-251" y="-342" type="curve" smooth="yes"/>
      <point x="-279" y="-342"/>
      <point x="-283" y="-368"/>
      <point x="-262" y="-391" type="curve" smooth="yes"/>
      <point x="-262" y="-412"/>
      <point x="-247" y="-430"/>
      <point x="-209" y="-430" type="curve" smooth="yes"/>
      <point x="-164" y="-425"/>
      <point x="-114" y="-410"/>
      <point x="-57" y="-386" type="curve"/>
    </contour>
    <contour>
      <point x="-381" y="-13" type="move" name="_mark0"/>
    </contour>
  </outline>
</glyph>
<glyph name="ecandravowelsigndeva" format="1">
  <advance width="0"/>
  <unicode hex="0945"/>
  <outline>
    <contour>
      <point x="113" y="1701" type="line"/>
      <point x="34" y="1526"/>
      <point x="-114" y="1421"/>
      <point x="-322" y="1421" type="curve" smooth="yes"/>
      <point x="-523" y="1421"/>
      <point x="-663" y="1531"/>
      <point x="-769" y="1691" type="curve"/>
      <point x="-685" y="1801" type="line"/>
      <point x="-591" y="1673"/>
      <point x="-483" y="1574"/>
      <point x="-324" y="1575" type="curve" smooth="yes"/>
      <point x="-154" y="1576"/>
      <point x="-67" y="1670"/>
      <point x="15" y="1804" type="curve"/>
    </contour>
    <contour>
      <point x="22" y="-13" type="move" name="x14"/>
    </contour>
    <contour>
      <point x="-381" y="1261" type="move" name="_mark0"/>
    </contour>
  </outline>
</glyph>
<glyph name="aivowelsigndeva" format="1">
  <advance width="0"/>
  <unicode hex="0948"/>
  <outline>
    <contour>
      <point x="-616" y="1244" type="line"/>
      <point x="-1066" y="1596" type="line"/>
      <point x="-913" y="1708" type="line"/>
      <point x="-368" y="1244" type="line"/>
    </contour>
    <contour>
      <point x="-396" y="1244" type="line"/>
      <point x="-618" y="1791" type="line"/>
      <point x="-436" y="1837" type="line"/>
      <point x="-216" y="1244" type="line"/>
    </contour>
    <contour>
      <point x="49" y="8" type="move" name="x27"/>
    </contour>
    <contour>
      <point x="-424" y="1282" type="move" name="_mark0"/>
    </contour>
  </outline>
</glyph>
<glyph name="viramadeva" format="1">
  <advance width="-1"/>
  <unicode hex="094D"/>
  <outline>
    <contour>
      <point x="-420" y="-76" type="line"/>
      <point x="99" y="-316" type="line"/>
      <point x="33" y="-464" type="line"/>
      <point x="-489" y="-228" type="line"/>
    </contour>
    <contour>
      <point x="49" y="8" type="move" name="x12"/>
    </contour>
    <contour>
      <point x="-424" y="8" type="move" name="_mark0"/>
    </contour>
  </outline>
</glyph>
<glyph name="omdeva" format="1">
  <advance width="2085"/>
  <unicode hex="0950"/>
  <outline>
    <contour>
      <point x="0" y="0" type="line"/>
      <point x="2085" y="0" type="line"/>
      <point x="2085" y="20" type="line"/>
      <point x="0" y="20" type="line"/>
    </contour>
  </outline>
</glyph>
<glyph name="uni0953" format="1">
  <advance width="43"/>
  <unicode hex="0953"/>
  <outline>
    <contour>
      <point x="-166" y="1429" type="line"/>
      <point x="-345" y="1429" type="line"/>
      <point x="-383" y="1494"/>
      <point x="-539" y="1743"/>
      <point x="-577" y="1808" type="curve"/>
      <point x="-311" y="1808" type="line"/>
    </contour>
    <contour>
      <point x="22" y="-13" type="move" name="x4"/>
    </contour>
    <contour>
      <point x="-381" y="1261" type="move" name="_mark0"/>
    </contour>
  </outline>
</glyph>
<glyph name="uni0954" format="1">
  <advance width="43"/>
  <unicode hex="0954"/>
  <outline>
    <contour>
      <point x="-241" y="1808" type="line"/>
      <point x="23" y="1808" type="line"/>
      <point x="-208" y="1429" type="line"/>
      <point x="-387" y="1429" type="line"/>
    </contour>
    <contour>
      <point x="22" y="-13" type="move" name="x4"/>
    </contour>
    <contour>
      <point x="-381" y="1261" type="move" name="_mark0"/>
    </contour>
  </outline>
</glyph>
<glyph name="rhadeva" format="1">
  <advance width="1121"/>
  <unicode hex="095D"/>
  <outline>
    <component base="ddhadeva"/>
    <component base="nuktadeva" xOffset="1336" yOffset="9"/>
    <contour>
      <point x="693" y="1274" type="move" name="mark0"/>
    </contour>
  </outline>
</glyph>
<glyph name="yyadeva" format="1">
  <advance width="1304"/>
  <unicode hex="095F"/>
  <outline>
    <contour>
      <point x="0" y="0" type="line"/>
      <point x="1304" y="0" type="line"/>
      <point x="1304" y="20" type="line"/>
      <point x="0" y="20" type="line"/>
    </contour>
  </outline>
</glyph>
<glyph name="rrvocalicdeva" format="1">
  <advance width="1734"/>
  <unicode hex="0960"/>
  <outline>
    <contour>
      <point x="0" y="0" type="line"/>
      <point x="1734" y="0" type="line"/>
      <point x="1734" y="20" type="line"/>
      <point x="0" y="20" type="line"/>
    </contour>
  </outline>
</glyph>
<glyph name="threedeva" format="1">
  <advance width="1229"/>
  <unicode hex="0969"/>
  <outline>
    <contour>
      <point x="0" y="0" type="line"/>
      <point x="1229" y="0" type="line"/>
      <point x="1229" y="20" type="line"/>
      <point x="0" y="20" type="line"/>
    </contour>
  </outline>
</glyph>
<glyph name="fivedeva" format="1">
  <advance width="1229"/>
  <unicode hex="096B"/>
  <outline>
    <contour>
      <point x="0" y="0" type="line"/>
      <point x="1229" y="0" type="line"/>
      <point x="1229" y="20" type="line"/>
      <point x="0" y="20" type="line"/>
    </contour>
  </outline>
</glyph>
<glyph name="sixdeva" format="1">
  <advance width="1247"/>
  <unicode hex="096C"/>
  <outline>
    <contour>
      <point x="0" y="0" type="line"/>
      <point x="1247" y="0" type="line"/>
      <point x="1247" y="20" type="line"/>
      <point x="0" y="20" type="line"/>
    </contour>
  </outline>
</glyph>
<glyph name="gabardeva" format="1">
  <advance width="1281"/>
  <unicode hex="097B"/>
  <outline>
    <contour>
      <point x="194" y="-17" type="line"/>
      <point x="194" y="121" type="line"/>
      <point x="869" y="121" type="line"/>
      <point x="869" y="1119" type="line"/>
      <point x="500" y="1119" type="line"/>
      <point x="500" y="510" type="line"/>
      <point x="500" y="439"/>
      <point x="465" y="391"/>
      <point x="379" y="391" type="curve" smooth="yes"/>
      <point x="314" y="391"/>
      <point x="244" y="446"/>
      <point x="202" y="491" type="curve"/>
      <point x="175" y="509"/>
      <point x="152" y="527"/>
      <point x="141" y="544" type="curve" smooth="yes"/>
      <point x="113" y="586"/>
      <point x="95" y="626"/>
      <point x="95" y="662" type="curve" smooth="yes"/>
      <point x="95" y="758"/>
      <point x="190" y="765"/>
      <point x="277" y="768" type="curve"/>
      <point x="277" y="1119" type="line"/>
      <point x="16" y="1119" type="line"/>
      <point x="16" y="1274" type="line"/>
      <point x="1308" y="1274" type="line"/>
      <point x="1308" y="1119" type="line"/>
      <point x="1092" y="1119" type="line"/>
      <point x="1092" y="-17" type="line"/>
    </contour>
  </outline>
</glyph>
<glyph name="uni097D" format="1">
  <advance width="1068"/>
  <unicode hex="097D"/>
  <outline>
    <contour>
      <point x="0" y="0" type="line"/>
      <point x="1068" y="0" type="line"/>
      <point x="1068" y="20" type="line"/>
      <point x="0" y="20" type="line"/>
    </contour>
  </outline>
</glyph>
<glyph name="uni200C" format="1">
  <advance width="43"/>
  <unicode hex="200C"/>
  <outline>
    <contour>
      <point x="-34" y="-347" type="line"/>
      <point x="-34" y="1621" type="line"/>
      <point x="78" y="1621" type="line"/>
      <point x="78" y="-347" type="line"/>
    </contour>
  </outline>
</glyph>
<glyph name="quoteleft.deva" format="1">
  <advance width="355"/>
  <unicode hex="2018"/>
  <outline>
    <contour>
      <point x="33" y="865" type="line"/>
      <point x="22" y="885" type="line"/>
      <point x="34" y="934"/>
      <point x="55" y="1001"/>
      <point x="86" y="1086" type="curve" smooth="yes"/>
      <point x="117" y="1171"/>
      <point x="148" y="1247"/>
      <point x="181" y="1316" type="curve"/>
      <point x="334" y="1316" type="line"/>
      <point x="295" y="1162"/>
      <point x="265" y="1012"/>
      <point x="243" y="865" type="curve"/>
    </contour>
  </outline>
</glyph>
<glyph name="uni20B9.deva" format="1">
  <advance width="1106"/>
  <unicode hex="20B9"/>
  <outline>
    <contour>
      <point x="0" y="0" type="line"/>
      <point x="1106" y="0" type="line"/>
      <point x="1106" y="20" type="line"/>
      <point x="0" y="20" type="line"/>
    </contour>
  </outline>
</glyph>
<glyph name="minus.deva" format="1">
  <advance width="1052"/>
  <unicode hex="2212"/>
  <outline>
    <contour>
      <point x="86" y="570" type="line"/>
      <point x="86" y="730" type="line"/>
      <point x="966" y="730" type="line"/>
      <point x="966" y="570" type="line"/>
    </contour>
  </outline>
</glyph>
<glyph name=".notdef" format="1">
  <advance width="1264"/>
  <outline>
    <contour>
      <point x="219" y="1392" type="line"/>
      <point x="1056" y="1392" type="line"/>
      <point x="1056" y="0" type="line"/>
      <point x="219" y="0" type="line"/>
    </contour>
    <contour>
      <point x="545" y="72" type="line"/>
      <point x="959" y="548" type="line"/>
      <point x="731" y="1320" type="line"/>
      <point x="317" y="845" type="line"/>
    </contour>
  </outline>
</glyph>
<glyph name="aivowelsignrephdeva" format="1">
  <advance width="0"/>
  <outline>
    <contour>
      <point x="-432" y="1244" type="line"/>
      <point x="-497" y="1350"/>
      <point x="-525" y="1399"/>
      <point x="-525" y="1490" type="curve" smooth="yes"/>
      <point x="-525" y="1632"/>
      <point x="-387" y="1769"/>
      <point x="-150" y="1769" type="curve" smooth="yes"/>
      <point x="-63" y="1769"/>
      <point x="-15" y="1763"/>
      <point x="65" y="1749" type="curve"/>
      <point x="52" y="1566" type="line"/>
      <point x="11" y="1572"/>
      <point x="-20" y="1574"/>
      <point x="-69" y="1574" type="curve" smooth="yes"/>
      <point x="-174" y="1574"/>
      <point x="-224" y="1517"/>
      <point x="-224" y="1423" type="curve" smooth="yes"/>
      <point x="-224" y="1371"/>
      <point x="-204" y="1313"/>
      <point x="-169" y="1244" type="curve"/>
    </contour>
    <component base="aivowelsigndeva"/>
    <contour>
      <point x="49" y="8" type="move" name="x38"/>
    </contour>
    <contour>
      <point x="-424" y="1282" type="move" name="_mark0"/>
    </contour>
  </outline>
</glyph>
<glyph name="bharaprehalfdeva" format="1">
  <advance width="1208"/>
  <outline>
    <contour>
      <point x="0" y="0" type="line"/>
      <point x="1208" y="0" type="line"/>
      <point x="1208" y="20" type="line"/>
      <point x="0" y="20" type="line"/>
    </contour>
  </outline>
</glyph>
<glyph name="dabadeva" format="1">
  <advance width="1466"/>
  <outline>
    <contour>
      <point x="0" y="0" type="line"/>
      <point x="1466" y="0" type="line"/>
      <point x="1466" y="20" type="line"/>
      <point x="0" y="20" type="line"/>
    </contour>
  </outline>
</glyph>
<glyph name="dadaaltdeva" format="1">
  <advance width="1251"/>
  <outline>
    <contour>
      <point x="0" y="0" type="line"/>
      <point x="1251" y="0" type="line"/>
      <point x="1251" y="20" type="line"/>
      <point x="0" y="20" type="line"/>
    </contour>
  </outline>
</glyph>
<glyph name="dadhayadeva" format="1">
  <advance width="2457"/>
  <outline>
    <contour>
      <point x="0" y="0" type="line"/>
      <point x="2457" y="0" type="line"/>
      <point x="2457" y="20" type="line"/>
      <point x="0" y="20" type="line"/>
    </contour>
  </outline>
</glyph>
<glyph name="ddayadeva" format="1">
  <advance width="2644"/>
  <outline>
    <contour>
      <point x="0" y="0" type="line"/>
      <point x="2644" y="0" type="line"/>
      <point x="2644" y="20" type="line"/>
      <point x="0" y="20" type="line"/>
    </contour>
  </outline>
</glyph>
<glyph name="evowelsignrephdeva" format="1">
  <advance width="0"/>
  <outline>
    <contour>
      <point x="-451" y="1244" type="line"/>
      <point x="-516" y="1350"/>
      <point x="-553" y="1386"/>
      <point x="-553" y="1499" type="curve" smooth="yes"/>
      <point x="-553" y="1641"/>
      <point x="-406" y="1783"/>
      <point x="-186" y="1783" type="curve" smooth="yes"/>
      <point x="-81" y="1783"/>
      <point x="-34" y="1776"/>
      <point x="46" y="1759" type="curve"/>
      <point x="33" y="1575" type="line"/>
      <point x="-8" y="1581"/>
      <point x="-39" y="1583"/>
      <point x="-88" y="1583" type="curve" smooth="yes"/>
      <point x="-193" y="1583"/>
      <point x="-250" y="1512"/>
      <point x="-250" y="1423" type="curve" smooth="yes"/>
      <point x="-250" y="1371"/>
      <point x="-228" y="1317"/>
      <point x="-188" y="1244" type="curve"/>
    </contour>
    <component base="evowelsigndeva"/>
    <contour>
      <point x="49" y="8" type="move" name="x24"/>
    </contour>
    <contour>
      <point x="-424" y="1282" type="move" name="_mark0"/>
    </contour>
  </outline>
</glyph>
<glyph name="gharaprehalfdeva" format="1">
  <advance width="846"/>
  <outline>
    <contour>
      <point x="0" y="0" type="line"/>
      <point x="846" y="0" type="line"/>
      <point x="846" y="20" type="line"/>
      <point x="0" y="20" type="line"/>
    </contour>
  </outline>
</glyph>
<glyph name="hanuktaradeva" format="1">
  <advance width="1275"/>
  <outline>
    <contour>
      <point x="0" y="0" type="line"/>
      <point x="1275" y="0" type="line"/>
      <point x="1275" y="20" type="line"/>
      <point x="0" y="20" type="line"/>
    </contour>
  </outline>
</glyph>
<glyph name="harauudeva" format="1">
  <advance width="1294"/>
  <outline>
    <contour>
      <point x="0" y="0" type="line"/>
      <point x="1294" y="0" type="line"/>
      <point x="1294" y="20" type="line"/>
      <point x="0" y="20" type="line"/>
    </contour>
  </outline>
</glyph>
<glyph name="havadeva" format="1">
  <advance width="1713"/>
  <outline>
    <contour>
      <point x="0" y="0" type="line"/>
      <point x="1713" y="0" type="line"/>
      <point x="1713" y="20" type="line"/>
      <point x="0" y="20" type="line"/>
    </contour>
  </outline>
</glyph>
<glyph name="hayadeva" format="1">
  <advance width="1835"/>
  <outline>
    <contour>
      <point x="0" y="0" type="line"/>
      <point x="1835" y="0" type="line"/>
      <point x="1835" y="20" type="line"/>
      <point x="0" y="20" type="line"/>
    </contour>
  </outline>
</glyph>
<glyph name="iinuktadeva" format="1">
  <advance width="1050"/>
  <outline>
    <contour>
      <point x="0" y="0" type="line"/>
      <point x="1050" y="0" type="line"/>
      <point x="1050" y="20" type="line"/>
      <point x="0" y="20" type="line"/>
    </contour>
  </outline>
</glyph>
<glyph name="ivowelsignreph05deva" format="1">
  <advance width="642"/>
  <outline>
    <contour>
      <point x="0" y="0" type="line"/>
      <point x="642" y="0" type="line"/>
      <point x="642" y="20" type="line"/>
      <point x="0" y="20" type="line"/>
    </contour>
  </outline>
</glyph>
<glyph name="japrehalfdeva" format="1">
  <advance width="1125"/>
  <outline>
    <contour>
      <point x="-5" y="1128" type="line"/>
      <point x="-5" y="1283" type="line"/>
      <point x="1223" y="1283" type="line"/>
      <point x="1223" y="1128" type="line"/>
    </contour>
    <contour>
      <point x="829" y="718" type="line"/>
      <point x="785" y="718"/>
      <point x="763" y="757"/>
      <point x="720" y="764" type="curve"/>
      <point x="822" y="681"/>
      <point x="931" y="547"/>
      <point x="931" y="409" type="curve" smooth="yes"/>
      <point x="931" y="228"/>
      <point x="803" y="116"/>
      <point x="615" y="116" type="curve" smooth="yes"/>
      <point x="352" y="116"/>
      <point x="179" y="391"/>
      <point x="40" y="633" type="curve"/>
      <point x="161" y="759" type="line"/>
      <point x="286" y="553"/>
      <point x="409" y="310"/>
      <point x="579" y="310" type="curve" smooth="yes"/>
      <point x="675" y="310"/>
      <point x="731" y="363"/>
      <point x="731" y="457" type="curve" smooth="yes"/>
      <point x="731" y="567"/>
      <point x="643" y="672"/>
      <point x="506" y="730" type="curve"/>
      <point x="531" y="895" type="line"/>
      <point x="1178" y="895" type="line"/>
      <point x="1178" y="718" type="line"/>
    </contour>
  </outline>
</glyph>
<glyph name="jharadeva" format="1">
  <advance width="1675"/>
  <outline>
    <contour>
      <point x="0" y="0" type="line"/>
      <point x="1675" y="0" type="line"/>
      <point x="1675" y="20" type="line"/>
      <point x="0" y="20" type="line"/>
    </contour>
  </outline>
</glyph>
<glyph name="kanuktaprehalfdeva" format="1">
  <advance width="1351"/>
  <outline>
    <contour>
      <point x="0" y="0" type="line"/>
      <point x="1351" y="0" type="line"/>
      <point x="1351" y="20" type="line"/>
      <point x="0" y="20" type="line"/>
    </contour>
  </outline>
</glyph>
<glyph name="laaltdevaMAR" format="1">
  <advance width="1603"/>
  <outline>
    <contour>
      <point x="0" y="0" type="line"/>
      <point x="1603" y="0" type="line"/>
      <point x="1603" y="20" type="line"/>
      <point x="0" y="20" type="line"/>
    </contour>
  </outline>
</glyph>
<glyph name="laprehalfdeva" format="1">
  <advance width="1027"/>
  <outline>
    <contour>
      <point x="0" y="0" type="line"/>
      <point x="1027" y="0" type="line"/>
      <point x="1027" y="20" type="line"/>
      <point x="0" y="20" type="line"/>
    </contour>
  </outline>
</glyph>
<glyph name="nganuktadeva" format="1">
  <advance width="1330"/>
  <outline>
    <component base="ngadeva"/>
    <component base="nuktadeva" xOffset="1377"/>
    <contour>
      <point x="990" y="1274" type="move" name="mark0"/>
    </contour>
  </outline>
</glyph>
<glyph name="nyaprehalfdeva" format="1">
  <advance width="1109"/>
  <outline>
    <contour>
      <point x="0" y="0" type="line"/>
      <point x="1109" y="0" type="line"/>
      <point x="1109" y="20" type="line"/>
      <point x="0" y="20" type="line"/>
    </contour>
  </outline>
</glyph>
<glyph name="paprehalfdeva" format="1">
  <advance width="689"/>
  <outline>
    <contour>
      <point x="0" y="0" type="line"/>
      <point x="689" y="0" type="line"/>
      <point x="689" y="20" type="line"/>
      <point x="0" y="20" type="line"/>
    </contour>
  </outline>
</glyph>
<glyph name="phaprehalfdeva" format="1">
  <advance width="1279"/>
  <outline>
    <contour>
      <point x="0" y="0" type="line"/>
      <point x="1279" y="0" type="line"/>
      <point x="1279" y="20" type="line"/>
      <point x="0" y="20" type="line"/>
    </contour>
  </outline>
</glyph>
<glyph name="ranuktaprehalfdeva" format="1">
  <advance width="915"/>
  <outline>
    <contour>
      <point x="0" y="0" type="line"/>
      <point x="915" y="0" type="line"/>
      <point x="915" y="20" type="line"/>
      <point x="0" y="20" type="line"/>
    </contour>
  </outline>
</glyph>
<glyph name="ranuktaradeva" format="1">
  <advance width="965"/>
  <outline>
    <contour>
      <point x="0" y="0" type="line"/>
      <point x="965" y="0" type="line"/>
      <point x="965" y="20" type="line"/>
      <point x="0" y="20" type="line"/>
    </contour>
  </outline>
</glyph>
<glyph name="rephdeva" format="1">
  <advance width="-1"/>
  <outline>
    <contour>
      <point x="-409" y="1244" type="line"/>
      <point x="-491" y="1347"/>
      <point x="-538" y="1446"/>
      <point x="-538" y="1554" type="curve" smooth="yes"/>
      <point x="-538" y="1680"/>
      <point x="-443" y="1789"/>
      <point x="-272" y="1789" type="curve" smooth="yes"/>
      <point x="-169" y="1789"/>
      <point x="-130" y="1781"/>
      <point x="-69" y="1768" type="curve"/>
      <point x="-78" y="1636" type="line"/>
      <point x="-120" y="1644"/>
      <point x="-149" y="1648"/>
      <point x="-198" y="1648" type="curve" smooth="yes"/>
      <point x="-289" y="1648"/>
      <point x="-340" y="1588"/>
      <point x="-340" y="1501" type="curve" smooth="yes"/>
      <point x="-340" y="1419"/>
      <point x="-302" y="1342"/>
      <point x="-225" y="1244" type="curve"/>
    </contour>
    <contour>
      <point x="49" y="8" type="move" name="x17"/>
    </contour>
    <contour>
      <point x="-424" y="1282" type="move" name="_mark0"/>
    </contour>
  </outline>
</glyph>
<glyph name="rrvocalicnuktadeva" format="1">
  <advance width="1734"/>
  <outline>
    <component base="rrvocalicdeva"/>
    <component base="nuktadeva" xOffset="1075" yOffset="134"/>
    <contour>
      <point x="846" y="1274" type="move" name="mark0"/>
    </contour>
  </outline>
</glyph>
<glyph name="rvocalicvowelsignlowdeva" format="1">
  <advance width="43"/>
  <outline>
    <contour>
      <point x="94" y="-755" type="line"/>
      <point x="-1" y="-799"/>
      <point x="-100" y="-824"/>
      <point x="-204" y="-824" type="curve" smooth="yes"/>
      <point x="-354" y="-824"/>
      <point x="-476" y="-758"/>
      <point x="-506" y="-635" type="curve"/>
      <point x="-506" y="-538"/>
      <point x="-419" y="-489"/>
      <point x="-333" y="-480" type="curve"/>
      <point x="-368" y="-453"/>
      <point x="-383" y="-464"/>
      <point x="-383" y="-430" type="curve" smooth="yes"/>
      <point x="-450" y="-355"/>
      <point x="-433" y="-329"/>
      <point x="-289" y="-397" type="curve"/>
      <point x="-285" y="-496"/>
      <point x="-221" y="-557"/>
      <point x="-158" y="-590" type="curve"/>
      <point x="-193" y="-594"/>
      <point x="-199" y="-608"/>
      <point x="-177" y="-631" type="curve" smooth="yes"/>
      <point x="-177" y="-656"/>
      <point x="-164" y="-669"/>
      <point x="-138" y="-669" type="curve" smooth="yes"/>
      <point x="-91" y="-664"/>
      <point x="-39" y="-644"/>
      <point x="34" y="-610" type="curve"/>
    </contour>
    <contour>
      <point x="-381" y="-13" type="move" name="_mark0"/>
    </contour>
  </outline>
</glyph>
<glyph name="sharadeva" format="1">
  <advance width="1500"/>
  <outline>
    <contour>
      <point x="0" y="0" type="line"/>
      <point x="1500" y="0" type="line"/>
      <point x="1500" y="20" type="line"/>
      <point x="0" y="20" type="line"/>
    </contour>
  </outline>
</glyph>
<glyph name="taraprehalfdeva" format="1">
  <advance width="863"/>
  <outline>
    <contour>
      <point x="0" y="0" type="line"/>
      <point x="863" y="0" type="line"/>
      <point x="863" y="20" type="line"/>
      <point x="0" y="20" type="line"/>
    </contour>
  </outline>
</glyph>
<glyph name="tharaprehalfdeva" format="1">
  <advance width="936"/>
  <outline>
    <contour>
      <point x="0" y="0" type="line"/>
      <point x="936" y="0" type="line"/>
      <point x="936" y="20" type="line"/>
      <point x="0" y="20" type="line"/>
    </contour>
  </outline>
</glyph>
<glyph name="ttanuktadeva" format="1">
  <advance width="1103"/>
  <outline>
    <component base="ttadeva"/>
    <component base="nuktadeva" xOffset="1226"/>
    <contour>
      <point x="648" y="1274" type="move" name="mark0"/>
    </contour>
  </outline>
</glyph>
<glyph name="ttaradeva" format="1">
  <advance width="1037"/>
  <outline>
    <component base="vattudeva" xOffset="1093"/>
    <component base="ttadeva"/>
    <contour>
      <point x="648" y="1274" type="move" name="mark0"/>
    </contour>
  </outline>
</glyph>
<glyph name="tthanuktadeva" format="1">
  <advance width="1222"/>
  <outline>
    <component base="tthadeva"/>
    <component base="nuktadeva" xOffset="1260"/>
    <contour>
      <point x="649" y="1274" type="move" name="mark0"/>
    </contour>
  </outline>
</glyph>
<glyph name="tthatthadeva" format="1">
  <advance width="1336"/>
  <outline>
    <contour>
      <point x="0" y="0" type="line"/>
      <point x="1336" y="0" type="line"/>
      <point x="1336" y="20" type="line"/>
      <point x="0" y="20" type="line"/>
    </contour>
  </outline>
</glyph>
<glyph name="uunuktadeva" format="1">
  <advance width="1429"/>
  <outline>
    <component base="uudeva"/>
    <component base="nuktadeva" xOffset="1231"/>
    <contour>
      <point x="827" y="1274" type="move" name="mark0"/>
    </contour>
  </outline>
</glyph>
<glyph name="vayadeva" format="1">
  <advance width="2081"/>
  <outline>
    <contour>
      <point x="0" y="0" type="line"/>
      <point x="2081" y="0" type="line"/>
      <point x="2081" y="20" type="line"/>
      <point x="0" y="20" type="line"/>
    </contour>
  </outline>
</glyph>
<glyph name="yaprehalfdeva" format="1">
  <advance width="739"/>
  <outline>
    <contour>
      <point x="0" y="0" type="line"/>
      <point x="739" y="0" type="line"/>
      <point x="739" y="20" type="line"/>
      <point x="0" y="20" type="line"/>
    </contour>
  </outline>
</glyph>
